<svg width="64" height="60" viewBox="0 0 64 60" fill="none" xmlns="http://www.w3.org/2000/svg">
<path fill-rule="evenodd" clip-rule="evenodd" d="M39.5542 22.918L32 0L24.4458 22.918H39.5542ZM44.2229 37.082L64 22.918H39.5542L42.0673 30.5425L44.2229 37.082ZM47.1084 45.8359H32L21.6153 38.3985L19.7771 37.082L12.2229 60L32 45.8359L51.7771 60L47.1084 45.8359Z" fill="white"/>
<path fill-rule="evenodd" clip-rule="evenodd" d="M10.646 30.5425L0 22.918H24.4458H39.5542L42.0673 30.5425H10.646ZM21.6153 38.3985L32 45.8359H47.1084L44.6569 38.3985H21.6153Z" fill="#B9383A"/>
<path d="M44.2229 37.082L42.0673 30.5425H10.646L19.7771 37.082L21.6153 38.3985H44.6569L44.2229 37.082Z" fill="white"/>
</svg>
