<svg width="29" height="29" viewBox="0 0 29 29" fill="none" xmlns="http://www.w3.org/2000/svg">
<mask id="mask0_2219_7068" style="mask-type:alpha" maskUnits="userSpaceOnUse" x="0" y="0" width="29" height="29">
<rect width="29" height="29" rx="3" fill="#D9D9D9"/>
</mask>
<g mask="url(#mask0_2219_7068)">
<path d="M28.9986 3.10714V27.2601C29.0431 28.2697 28.034 29 27.0249 29H9.99415C10.6285 27.9384 11.4441 26.4107 11.7677 25.1614C11.9619 24.417 12.7581 21.381 12.7581 21.381C13.2759 22.3714 14.7906 23.2065 16.4023 23.2065C21.1987 23.2065 24.6488 18.7982 24.6488 13.3219C24.6488 8.0721 20.3637 4.14286 14.8488 4.14286C7.98755 4.14286 4.34979 8.74531 4.34979 13.7621C4.34979 16.0924 5.59258 18.9924 7.57329 19.9181C7.87752 20.0605 8.03286 19.9958 8.10407 19.7045C8.15585 19.4844 8.42771 18.4033 8.54422 17.9049C8.58306 17.7431 8.56364 17.6071 8.43418 17.4518C7.78042 16.6556 7.24964 15.1926 7.24964 13.8268C7.24964 10.3183 9.90353 6.92634 14.4281 6.92634C18.3312 6.92634 21.0693 9.58683 21.0693 13.3931C21.0693 17.6913 18.9009 20.669 16.0722 20.669C14.5122 20.669 13.3471 19.3808 13.7161 17.7949C14.1627 15.9047 15.0301 13.8656 15.0301 12.4998C15.0301 9.06897 10.143 9.54152 10.143 14.1181C10.143 15.5228 10.6156 16.4808 10.6156 16.4808C8.58306 25.0772 8.27883 25.1873 8.69957 28.9482L8.84198 29H3.10699C1.39167 29 0 27.6083 0 25.8929V3.10714C0 1.39174 1.39167 0 3.10699 0H25.8916C27.6069 0 28.9986 1.39174 28.9986 3.10714Z" fill="#112D51"/>
</g>
</svg>
