<svg width="29" height="29" viewBox="0 0 29 29" fill="none" xmlns="http://www.w3.org/2000/svg">
<mask id="mask0_2219_7064" style="mask-type:alpha" maskUnits="userSpaceOnUse" x="0" y="0" width="29" height="29">
<rect width="29" height="29" rx="3" fill="#D9D9D9"/>
</mask>
<g mask="url(#mask0_2219_7064)">
<path d="M27.84 0H1.16C0.518375 0 0 0.518375 0 1.16V27.84C0 28.4816 0.518375 29 1.16 29H27.84C28.4816 29 29 28.4816 29 27.84V1.16C29 0.518375 28.4816 0 27.84 0ZM15.8231 18.5165C14.2317 20.7567 11.0345 21.4092 8.5405 20.4486C6.03925 19.4952 4.263 16.8526 4.47687 14.1592C4.53125 10.8641 7.56537 7.975 10.8605 8.08737C12.441 8.01487 13.9272 8.7 15.138 9.66788C14.6196 10.2551 14.0867 10.8206 13.514 11.3462C12.0604 10.3421 9.9905 10.0557 8.53687 11.2157C6.45612 12.6549 6.36188 16.0515 8.36288 17.5994C10.3095 19.3647 13.9889 18.4875 14.529 15.7833C13.311 15.7651 12.0857 15.7832 10.8677 15.7434C10.8641 15.0147 10.8605 14.2897 10.8641 13.5611C12.9014 13.5539 14.9422 13.5502 16.9831 13.5684C17.1027 15.283 16.8744 17.1027 15.8231 18.5165ZM24.6137 15.3881C24.0047 15.3954 23.3957 15.399 22.7867 15.4026C22.7795 16.0116 22.7759 16.6206 22.7759 17.2296H20.9525C20.9452 16.6206 20.9452 16.0152 20.9416 15.4062C20.3326 15.399 19.7236 15.3954 19.1146 15.3881V13.572C19.7236 13.5647 20.3326 13.5611 20.9416 13.5611C20.9452 12.9521 20.9525 12.3431 20.9561 11.7341H22.7759L22.7867 13.5611C23.3957 13.5684 24.0047 13.5684 24.6137 13.572V15.3881Z" fill="#112D51"/>
</g>
</svg>
