<svg width="17" height="16" viewBox="0 0 17 16" fill="none" xmlns="http://www.w3.org/2000/svg">
<path fill-rule="evenodd" clip-rule="evenodd" d="M11.671 10.3188L15.9748 14.6227C16.1261 14.7741 16.211 14.9793 16.2109 15.1933C16.2109 15.4074 16.1258 15.6126 15.9744 15.7639C15.823 15.9151 15.6177 16.0001 15.4037 16C15.1897 15.9999 14.9845 15.9148 14.8333 15.7635L10.5295 11.4595C9.24288 12.4561 7.62501 12.925 6.00496 12.771C4.38492 12.617 2.88439 11.8516 1.80864 10.6305C0.732895 9.40935 0.162728 7.82428 0.214134 6.1977C0.265541 4.57112 0.93466 3.02522 2.08537 1.87448C3.23608 0.72374 4.78194 0.054605 6.40848 0.00319699C8.03502 -0.048211 9.62005 0.52197 10.8411 1.59775C12.0622 2.67352 12.8276 4.17409 12.9816 5.79417C13.1356 7.41426 12.6667 9.03217 11.6702 10.3188H11.671ZM6.61123 11.1996C7.88421 11.1996 9.10506 10.6939 10.0052 9.7937C10.9053 8.89354 11.411 7.67267 11.411 6.39966C11.411 5.12665 10.9053 3.90577 10.0052 3.00562C9.10506 2.10546 7.88421 1.59976 6.61123 1.59976C5.33825 1.59976 4.11741 2.10546 3.21728 3.00562C2.31715 3.90577 1.81146 5.12665 1.81146 6.39966C1.81146 7.67267 2.31715 8.89354 3.21728 9.7937C4.11741 10.6939 5.33825 11.1996 6.61123 11.1996Z" fill="white"/>
</svg>
