<svg width="21" height="20" viewBox="0 0 21 20" fill="none" xmlns="http://www.w3.org/2000/svg">
<path d="M1.38281 10.1963C1.38281 8.03289 2.25813 5.95805 3.81621 4.42827C5.37429 2.89849 7.4875 2.03906 9.69096 2.03906C11.8944 2.03906 14.0076 2.89849 15.5657 4.42827C17.1238 5.95805 17.9991 8.03289 17.9991 10.1963C17.9991 12.3598 17.1238 14.4346 15.5657 15.9644C14.0076 17.4942 11.8944 18.3536 9.69096 18.3536C7.4875 18.3536 5.37429 17.4942 3.81621 15.9644C2.25813 14.4346 1.38281 12.3598 1.38281 10.1963ZM9.1717 3.13723C8.4759 3.34524 7.78528 3.97335 7.21202 5.0287C7.02315 5.37956 6.8607 5.74353 6.72599 6.11769H9.1717V3.13723ZM5.63035 6.11769C5.80345 5.57607 6.0259 5.05086 6.29501 4.54844C6.47457 4.21507 6.68195 3.89687 6.915 3.5971C5.62828 4.12103 4.52122 4.99569 3.72467 6.11769H5.63035ZM5.02594 9.6865C5.05709 8.79226 5.16925 7.93473 5.34995 7.13735H3.12129C2.73405 7.93784 2.50297 8.80247 2.44002 9.6865H5.02594ZM6.41651 7.13735C6.21225 7.97327 6.09465 8.82733 6.06549 9.6865H9.1717V7.13735H6.41651ZM10.2102 7.13735V9.6865H13.3154C13.2866 8.82737 13.1694 7.9733 12.9654 7.13735H10.2102ZM6.06653 10.7062C6.09535 11.5653 6.2126 12.4193 6.41651 13.2553H9.1717V10.7062H6.06653ZM10.2102 10.7062V13.2553H12.9654C13.1596 12.4753 13.2832 11.6157 13.3164 10.7062H10.2102ZM6.72599 14.275C6.86931 14.6685 7.03236 15.0336 7.21202 15.364C7.78528 16.4193 8.47694 17.0464 9.1717 17.2554V14.275H6.72599ZM6.915 16.7956C6.68193 16.4958 6.47456 16.1776 6.29501 15.8442C6.0259 15.3418 5.80345 14.8166 5.63035 14.275H3.72467C4.52118 15.397 5.62825 16.2717 6.915 16.7956ZM5.34995 13.2553C5.16215 12.4172 5.05369 11.5639 5.02594 10.7062H2.44002C2.50441 11.6137 2.74223 12.4732 3.12129 13.2553H5.34995ZM12.4669 16.7956C13.7537 16.2717 14.8607 15.397 15.6573 14.275H13.7516C13.5785 14.8166 13.356 15.3418 13.0869 15.8442C12.9074 16.1776 12.7 16.4958 12.4669 16.7956ZM10.2102 14.275V17.2554C10.906 17.0474 11.5966 16.4193 12.1699 15.364C12.3496 15.0336 12.5126 14.6685 12.6559 14.275H10.2102ZM14.032 13.2553H16.2606C16.6397 12.4732 16.8775 11.6137 16.9419 10.7062H14.356C14.3283 11.5639 14.2198 12.4172 14.032 13.2553ZM16.9419 9.6865C16.8789 8.80247 16.6479 7.93784 16.2606 7.13735H14.032C14.2127 7.93473 14.3248 8.79226 14.356 9.6865H16.9419ZM13.0869 4.54844C13.3434 5.02156 13.5667 5.54771 13.7516 6.11769H15.6573C14.8607 4.99565 13.7537 4.12098 12.4669 3.5971C12.6933 3.88668 12.901 4.20686 13.0869 4.54844ZM12.6559 6.11769C12.5212 5.74353 12.3588 5.37955 12.1699 5.0287C11.5966 3.97335 10.906 3.34626 10.2102 3.13723V6.11769H12.6559Z" fill="#112D51"/>
</svg>
