<svg width="35" height="35" viewBox="0 0 35 35" fill="none" xmlns="http://www.w3.org/2000/svg">
<path d="M17.5 6C11.1486 6 6 11.1486 6 17.5C6 23.8514 11.1486 29 17.5 29C23.8514 29 29 23.8514 29 17.5C29 11.1486 23.8514 6 17.5 6ZM21.3159 22.5823C21.135 22.7622 20.9454 22.9509 20.7914 23.1053C20.6528 23.2444 20.5549 23.416 20.5053 23.602C20.4353 23.8644 20.3787 24.1297 20.2841 24.3842L19.4777 26.5567C18.8397 26.6958 18.1793 26.7742 17.5 26.7742V25.5046C17.5784 24.9194 17.1457 23.8231 16.4506 23.128C16.1724 22.8498 16.0161 22.4724 16.0161 22.0787V20.5943C16.0161 20.0546 15.7254 19.5584 15.2529 19.2973C14.5865 18.9287 13.6387 18.4135 12.9895 18.0866C12.4572 17.8186 11.9647 17.4773 11.5219 17.078L11.4848 17.0446C11.1681 16.7588 10.8869 16.4359 10.6473 16.0829C10.2123 15.4444 9.50379 14.3941 9.04333 13.7115C9.99254 11.6016 11.7032 9.90722 13.8288 8.98675L14.9422 9.54367C15.4356 9.79036 16.0161 9.43192 16.0161 8.8801V8.35611C16.3866 8.29629 16.7636 8.25827 17.1471 8.24389L18.4594 9.55619C18.7492 9.84601 18.7492 10.3157 18.4594 10.6056L18.2419 10.8226L17.7625 11.3021C17.6178 11.4467 17.6178 11.6818 17.7625 11.8265L17.9799 12.044C18.1246 12.1887 18.1246 12.4238 17.9799 12.5684L17.609 12.9394C17.5393 13.0089 17.4449 13.048 17.3465 13.0479H16.9296C16.8332 13.0479 16.7404 13.0855 16.6709 13.1532L16.2109 13.6007C16.1545 13.6556 16.117 13.727 16.1038 13.8046C16.0907 13.8822 16.1025 13.9619 16.1376 14.0324L16.8605 15.4787C16.9839 15.7254 16.8044 16.0157 16.529 16.0157H16.2675C16.178 16.0157 16.0917 15.9832 16.0245 15.9248L15.5942 15.551C15.4968 15.4665 15.3791 15.4089 15.2527 15.3837C15.1262 15.3585 14.9954 15.3666 14.8731 15.4073L13.4277 15.8891C13.3174 15.9259 13.2214 15.9965 13.1534 16.0908C13.0854 16.1852 13.0488 16.2986 13.0489 16.4149C13.0489 16.625 13.1676 16.8165 13.3554 16.9106L13.8692 17.1675C14.3055 17.3859 14.7868 17.4995 15.2747 17.4995C15.7625 17.4995 16.3222 18.765 16.7585 18.9834H19.8538C20.2475 18.9834 20.6245 19.1397 20.9032 19.4179L21.538 20.0527C21.8032 20.318 21.9521 20.6778 21.9521 21.0529C21.952 21.3372 21.8957 21.6186 21.7865 21.8811C21.6774 22.1435 21.5174 22.3818 21.3159 22.5823ZM25.3367 18.3463C25.0682 18.279 24.834 18.1144 24.6805 17.884L23.8468 16.6333C23.7248 16.4506 23.6597 16.2358 23.6597 16.0161C23.6597 15.7964 23.7248 15.5817 23.8468 15.3989L24.7552 14.0366C24.8628 13.8756 25.0102 13.7449 25.1837 13.6586L25.7856 13.3577C26.4125 14.606 26.7742 16.0101 26.7742 17.5C26.7742 17.902 26.7399 18.2957 26.6898 18.6843L25.3367 18.3463Z" fill="#2867C6"/>
</svg>
