<svg width="20" height="20" viewBox="0 0 20 20" fill="none" xmlns="http://www.w3.org/2000/svg">
<path d="M9.9974 9.58464C9.44486 9.58464 8.91496 9.36514 8.52426 8.97444C8.13356 8.58374 7.91406 8.05384 7.91406 7.5013C7.91406 6.94877 8.13356 6.41886 8.52426 6.02816C8.91496 5.63746 9.44486 5.41797 9.9974 5.41797C10.5499 5.41797 11.0798 5.63746 11.4705 6.02816C11.8612 6.41886 12.0807 6.94877 12.0807 7.5013C12.0807 7.77489 12.0268 8.0458 11.9221 8.29856C11.8174 8.55132 11.664 8.78099 11.4705 8.97444C11.2771 9.1679 11.0474 9.32135 10.7947 9.42605C10.5419 9.53075 10.271 9.58464 9.9974 9.58464ZM9.9974 1.66797C8.4503 1.66797 6.96657 2.28255 5.87261 3.37651C4.77864 4.47047 4.16406 5.95421 4.16406 7.5013C4.16406 11.8763 9.9974 18.3346 9.9974 18.3346C9.9974 18.3346 15.8307 11.8763 15.8307 7.5013C15.8307 5.95421 15.2161 4.47047 14.1222 3.37651C13.0282 2.28255 11.5445 1.66797 9.9974 1.66797Z" fill="#666666"/>
</svg>
