<svg width="20" height="20" viewBox="0 0 20 20" fill="none" xmlns="http://www.w3.org/2000/svg">
<path d="M10.8 13.1111H9.2C8.76 13.1111 8.4 12.7611 8.4 12.3333H2.808V15.4444C2.808 16.3 3.528 17 4.408 17H15.6C16.48 17 17.2 16.3 17.2 15.4444V12.3333H11.6C11.6 12.7611 11.24 13.1111 10.8 13.1111ZM16.4 6.11111H13.2C13.2 4.39222 11.768 3 10 3C8.232 3 6.8 4.39222 6.8 6.11111H3.6C2.72 6.11111 2 6.81111 2 7.66667V10C2 10.8633 2.712 11.5556 3.6 11.5556H8.4V10.7778C8.4 10.35 8.76 10 9.2 10H10.8C11.24 10 11.6 10.35 11.6 10.7778V11.5556H16.4C17.28 11.5556 18 10.8556 18 10V7.66667C18 6.81111 17.28 6.11111 16.4 6.11111ZM8.4 6.11111C8.4 5.25556 9.12 4.55556 10 4.55556C10.88 4.55556 11.6 5.25556 11.6 6.11111H8.392H8.4Z" fill="#666666"/>
</svg>
