<svg width="20" height="20" viewBox="0 0 20 20" fill="none" xmlns="http://www.w3.org/2000/svg">
<path d="M10 2C5.58167 2 2 5.58167 2 10C2 14.4183 5.58167 18 10 18C14.4183 18 18 14.4183 18 10C18 5.58167 14.4183 2 10 2ZM10.6908 14.3374V15.4642H9.61305V14.3501C7.8445 14.1079 7.07004 12.6547 7.07004 12.6547L8.17091 11.7339C8.17091 11.7339 8.87381 12.9575 10.1453 12.9575C10.8477 12.9575 11.3805 12.5815 11.3805 11.9392C11.3805 10.4376 7.3348 10.6198 7.3348 7.83404C7.3348 6.62309 8.29256 5.75065 9.61249 5.54424V4.4186H10.6902V5.54424C11.6106 5.66534 12.7004 6.14972 12.7004 7.19169V7.99092H11.2715V7.60341C11.2715 7.2038 10.7624 6.93739 10.1927 6.93739C9.46608 6.93739 8.93381 7.30067 8.93381 7.80928C8.93381 9.34719 12.9795 8.97179 12.9795 11.8907C12.9795 13.0907 12.0834 14.131 10.6908 14.3374Z" fill="#666666"/>
</svg>
