<svg width="21" height="20" viewBox="0 0 21 20" fill="none" xmlns="http://www.w3.org/2000/svg">
<path d="M10.0483 9.58464C9.49314 9.58464 8.96075 9.36514 8.56821 8.97444C8.17567 8.58374 7.95514 8.05384 7.95514 7.5013C7.95514 6.94877 8.17567 6.41886 8.56821 6.02816C8.96075 5.63746 9.49314 5.41797 10.0483 5.41797C10.6034 5.41797 11.1358 5.63746 11.5283 6.02816C11.9209 6.41886 12.1414 6.94877 12.1414 7.5013C12.1414 7.77489 12.0873 8.0458 11.9821 8.29856C11.8769 8.55132 11.7227 8.78099 11.5283 8.97444C11.334 9.1679 11.1032 9.32135 10.8493 9.42605C10.5953 9.53075 10.3232 9.58464 10.0483 9.58464ZM10.0483 1.66797C8.4939 1.66797 7.00319 2.28255 5.90408 3.37651C4.80497 4.47047 4.1875 5.95421 4.1875 7.5013C4.1875 11.8763 10.0483 18.3346 10.0483 18.3346C10.0483 18.3346 15.9091 11.8763 15.9091 7.5013C15.9091 5.95421 15.2916 4.47047 14.1925 3.37651C13.0934 2.28255 11.6027 1.66797 10.0483 1.66797Z" fill="#112D51"/>
</svg>
