<svg width="35" height="35" viewBox="0 0 35 35" fill="none" xmlns="http://www.w3.org/2000/svg">
<path d="M32 8.70588C30.9694 9.17941 29.8585 9.49059 28.7075 9.63941C29.8853 8.92235 30.7954 7.78588 31.2237 6.41941C30.1128 7.09588 28.8815 7.56941 27.5832 7.84C26.5258 6.67647 25.0402 6 23.3537 6C20.2084 6 17.6386 8.59765 17.6386 11.8041C17.6386 12.2641 17.6922 12.7106 17.7859 13.13C13.021 12.8865 8.7782 10.5729 5.95411 7.06882C5.45889 7.92118 5.17782 8.92235 5.17782 9.97765C5.17782 11.9935 6.18164 13.7794 7.73423 14.7941C6.78394 14.7941 5.90057 14.5235 5.12428 14.1176V14.1582C5.12428 16.9724 7.10516 19.3265 9.72849 19.8541C8.88625 20.0871 8.00204 20.1195 7.14532 19.9488C7.50884 21.1022 8.2208 22.1114 9.18109 22.8346C10.1414 23.5577 11.3017 23.9585 12.499 23.9806C10.4695 25.6047 7.95372 26.4826 5.3652 26.47C4.91013 26.47 4.45507 26.4429 4 26.3888C6.54302 28.0394 9.56788 29 12.8069 29C23.3537 29 29.1491 20.1518 29.1491 12.4806C29.1491 12.2235 29.1491 11.98 29.1358 11.7229C30.26 10.9112 31.2237 9.88294 32 8.70588Z" fill="#2867C6"/>
</svg>
