<svg width="276" height="83" viewBox="0 0 276 83" fill="none" xmlns="http://www.w3.org/2000/svg">
<path d="M46.3483 41C44.2844 41 42.7039 40.5417 41.6067 39.625C40.5356 38.7083 40 37.4148 40 35.7444V24.2556C40 22.5852 40.5356 21.2917 41.6067 20.375C42.7039 19.4583 44.2844 19 46.3483 19C48.4121 19 49.9796 19.4583 51.0507 20.375C52.1479 21.2917 52.6966 22.5852 52.6966 24.2556V26.5167H48.6211V24.0417C48.6211 22.7176 47.9027 22.0556 46.4658 22.0556C45.029 22.0556 44.3106 22.7176 44.3106 24.0417V35.9889C44.3106 37.2926 45.029 37.9444 46.4658 37.9444C47.9027 37.9444 48.6211 37.2926 48.6211 35.9889V32.7194H52.6966V35.7444C52.6966 37.4148 52.1479 38.7083 51.0507 39.625C49.9796 40.5417 48.4121 41 46.3483 41Z" fill="#0A71B9"/>
<path d="M58.6064 19.3056H64.4453L68.9126 40.6944H64.602L63.8183 36.4472V36.5083H58.9199L58.1362 40.6944H54.1391L58.6064 19.3056ZM63.3089 33.6056L61.3887 23.0333H61.3103L59.4294 33.6056H63.3089Z" fill="#0A71B9"/>
<path d="M71.0039 19.3056H77.3913C79.6119 19.3056 81.2317 19.713 82.2505 20.5278C83.2694 21.3222 83.7788 22.5546 83.7788 24.225V25.5389C83.7788 27.7593 82.8383 29.1648 80.9573 29.7556V29.8167C82.0023 30.0611 82.7338 30.5602 83.1518 31.3139C83.5959 32.0676 83.818 33.0759 83.818 34.3389V38.0972C83.818 38.7083 83.8441 39.2074 83.8964 39.5944C83.9486 39.9611 84.0792 40.3278 84.2882 40.6944H79.8993C79.7425 40.3481 79.6381 40.0222 79.5858 39.7167C79.5336 39.4111 79.5074 38.8611 79.5074 38.0667V34.1556C79.5074 33.1778 79.2984 32.4954 78.8804 32.1083C78.4886 31.7213 77.7963 31.5278 76.8035 31.5278H75.3144V40.6944H71.0039V19.3056ZM76.8819 28.4722C77.744 28.4722 78.3841 28.2991 78.8021 27.9528C79.2462 27.6065 79.4682 27.0259 79.4682 26.2111V24.5611C79.4682 23.787 79.2854 23.2269 78.9196 22.8806C78.58 22.5343 78.0314 22.3611 77.2738 22.3611H75.3144V28.4722H76.8819Z" fill="#0A71B9"/>
<path d="M86.8087 19.3056H98.5648V22.3611H91.1193V28.0139H97.0365V31.0694H91.1193V37.6389H98.5648V40.6944H86.8087V19.3056Z" fill="#0A71B9"/>
<path d="M101.045 19.3056H112.801V22.3611H105.355V28.0139H111.272V31.0694H105.355V37.6389H112.801V40.6944H101.045V19.3056Z" fill="#0A71B9"/>
<path d="M115.28 19.3056H121.668C123.889 19.3056 125.508 19.713 126.527 20.5278C127.546 21.3222 128.055 22.5546 128.055 24.225V25.5389C128.055 27.7593 127.115 29.1648 125.234 29.7556V29.8167C126.279 30.0611 127.01 30.5602 127.428 31.3139C127.873 32.0676 128.095 33.0759 128.095 34.3389V38.0972C128.095 38.7083 128.121 39.2074 128.173 39.5944C128.225 39.9611 128.356 40.3278 128.565 40.6944H124.176C124.019 40.3481 123.915 40.0222 123.862 39.7167C123.81 39.4111 123.784 38.8611 123.784 38.0667V34.1556C123.784 33.1778 123.575 32.4954 123.157 32.1083C122.765 31.7213 122.073 31.5278 121.08 31.5278H119.591V40.6944H115.28V19.3056ZM121.158 28.4722C122.021 28.4722 122.661 28.2991 123.079 27.9528C123.523 27.6065 123.745 27.0259 123.745 26.2111V24.5611C123.745 23.787 123.562 23.2269 123.196 22.8806C122.857 22.5343 122.308 22.3611 121.55 22.3611H119.591V28.4722H121.158Z" fill="#0A71B9"/>
<path d="M136.689 41C134.599 41 133.019 40.5417 131.947 39.625C130.876 38.688 130.341 37.3537 130.341 35.6222V34.4H134.416V35.8667C134.416 37.2519 135.161 37.9444 136.65 37.9444C137.381 37.9444 137.93 37.7815 138.296 37.4556C138.688 37.1093 138.884 36.5593 138.884 35.8056C138.884 34.9093 138.622 34.125 138.1 33.4528C137.577 32.7602 136.611 31.9352 135.2 30.9778C133.423 29.7556 132.183 28.6556 131.477 27.6778C130.772 26.6796 130.419 25.5593 130.419 24.3167C130.419 22.6259 130.968 21.3222 132.065 20.4056C133.162 19.4685 134.756 19 136.846 19C138.91 19 140.464 19.4685 141.509 20.4056C142.58 21.3222 143.116 22.6463 143.116 24.3778V25.2639H139.04V24.1639C139.04 23.4306 138.857 22.9009 138.492 22.575C138.126 22.2287 137.59 22.0556 136.885 22.0556C135.448 22.0556 134.73 22.738 134.73 24.1028C134.73 24.8769 134.991 25.6 135.513 26.2722C136.062 26.9444 137.042 27.7593 138.452 28.7167C140.255 29.9389 141.496 31.0491 142.175 32.0472C142.854 33.0454 143.194 34.2167 143.194 35.5611C143.194 37.313 142.632 38.6574 141.509 39.5944C140.412 40.5315 138.805 41 136.689 41Z" fill="#0A71B9"/>
<path d="M151.942 19.3056H156.252V40.6944H151.942V19.3056Z" fill="#0A71B9"/>
<path d="M159.481 19.3056H164.888L169.081 32.1083H169.16V19.3056H173V40.6944H168.572L163.399 25.0806H163.321V40.6944H159.481V19.3056Z" fill="#0A71B9"/>
<g clip-path="url(#clip0_580_2943)">
<path d="M11.2524 74.5552C11.7373 74.2029 12.173 73.7602 12.562 73.2326C12.5697 73.5776 12.5828 74.0387 12.6051 74.6656L12.6222 75.1478H13.1047H14.9711H15.4766L15.4711 74.6423L15.3189 60.7981L15.3135 60.3036H14.819H7.46576H6.96576V60.8036V64.1691V64.6691H7.46576H11.8848C11.8845 67.0626 11.5467 68.7197 10.9437 69.7218C10.3728 70.6459 9.47563 71.1266 8.15037 71.1266C6.80386 71.1266 5.79917 70.5327 5.08835 69.2804C4.37078 67.9604 3.98488 65.9695 3.98488 63.2512V59.8093C3.98488 57.0885 4.38006 55.1133 5.11164 53.8221L5.11352 53.8187C5.8278 52.5351 6.8264 51.934 8.15037 51.934C9.34038 51.934 10.2102 52.4022 10.8241 53.3502L10.8301 53.3593C11.2032 53.9089 11.3918 54.1894 11.5098 54.5608C11.629 54.9357 11.6838 55.4344 11.6838 56.4096V56.9096H12.1838H14.6687H15.1687V56.4096C15.1687 55.448 15.139 54.8167 15.0329 54.2338C14.9265 53.6494 14.7466 53.1334 14.4762 52.4069C13.9099 50.8855 13.0841 49.6807 11.9838 48.8227C10.8927 47.9586 9.60713 47.5303 8.15037 47.5303C5.70967 47.5303 3.79767 48.6826 2.44881 50.907L2.44727 50.9095C1.13215 53.1075 0.5 56.09 0.5 59.8093V63.2512C0.5 66.9953 1.13189 69.9908 2.44727 72.1893L2.45023 72.1941C3.80043 74.3935 5.71261 75.5303 8.15037 75.5303C9.31336 75.5303 10.3539 75.2079 11.2524 74.5552Z" fill="#112D51" stroke="#112D51"/>
<path d="M27.7384 76.0303C25.2483 76.0303 23.3423 75.4127 22.0204 74.1775C20.6985 72.9423 20.0376 71.1969 20.0376 68.9414V54.1192C20.0376 51.8636 20.6985 50.1182 22.0204 48.883C23.3423 47.6479 25.2483 47.0303 27.7384 47.0303C30.2285 47.0303 32.1345 47.6479 33.4564 48.883C34.7782 50.1182 35.4392 51.8636 35.4392 54.1192V68.9414C35.4392 71.1969 34.7782 72.9423 33.4564 74.1775C32.1345 75.4127 30.2285 76.0303 27.7384 76.0303ZM27.7384 72.0025C29.4907 72.0025 30.3668 71.0761 30.3668 69.2233V53.8372C30.3668 51.9844 29.4907 51.0581 27.7384 51.0581C25.9861 51.0581 25.11 51.9844 25.11 53.8372V69.2233C25.11 71.0761 25.9861 72.0025 27.7384 72.0025Z" fill="#112D51"/>
<path d="M37.4424 47.4326H42.5609L45.881 69.3035H45.9732L49.2933 47.4326H53.9507L49.0628 75.6271H42.3303L37.4424 47.4326Z" fill="#112D51"/>
<path d="M56.3867 47.4326H70.2205V51.4604H61.4591V58.9118H68.4221V62.9396H61.4591V71.5993H70.2205V75.6271H56.3867V47.4326Z" fill="#112D51"/>
<path d="M73.1387 47.4326H80.6551C83.2681 47.4326 85.1741 47.9697 86.3731 49.0437C87.572 50.0909 88.1714 51.7155 88.1714 53.9173V55.6493C88.1714 58.5762 87.0647 60.4289 84.8513 61.2077V61.2882C86.081 61.6104 86.9418 62.2683 87.4336 63.2618C87.9563 64.2553 88.2176 65.5845 88.2176 67.2493V72.2035C88.2176 73.009 88.2483 73.6669 88.3098 74.1771C88.3713 74.6604 88.525 75.1438 88.7709 75.6271H83.6063C83.4218 75.1706 83.2989 74.741 83.2374 74.3382C83.1759 73.9354 83.1452 73.2104 83.1452 72.1632V67.0077C83.1452 65.7188 82.8992 64.8192 82.4074 64.309C81.9462 63.7989 81.1316 63.5438 79.9634 63.5438H78.2111V75.6271H73.1387V47.4326ZM80.0556 59.516C81.0701 59.516 81.8233 59.2877 82.3151 58.8313C82.8378 58.3748 83.0991 57.6095 83.0991 56.5354V54.3604C83.0991 53.34 82.8839 52.6016 82.4535 52.1451C82.0538 51.6886 81.4083 51.4604 80.5168 51.4604H78.2111V59.516H80.0556Z" fill="#112D51"/>
<path d="M91.7368 47.4326H98.1003L103.034 64.309H103.127V47.4326H107.646V75.6271H102.435L96.348 55.0451H96.2558V75.6271H91.7368V47.4326Z" fill="#112D51"/>
<path d="M111.416 47.4326H118.655L121.883 67.6118H121.976L125.203 47.4326H132.443V75.6271H127.647V54.2798H127.555L123.866 75.6271H119.624L115.935 54.2798H115.843V75.6271H111.416V47.4326Z" fill="#112D51"/>
<path d="M136.228 47.4326H150.062V51.4604H141.301V58.9118H148.264V62.9396H141.301V71.5993H150.062V75.6271H136.228V47.4326Z" fill="#112D51"/>
<path d="M152.98 47.4326H159.344L164.278 64.309H164.37V47.4326H168.889V75.6271H163.678L157.591 55.0451H157.499V75.6271H152.98V47.4326Z" fill="#112D51"/>
<path d="M176.625 51.4604H171.322V47.4326H187V51.4604H181.697V75.6271H176.625V51.4604Z" fill="#112D51"/>
</g>
<path fill-rule="evenodd" clip-rule="evenodd" d="M243.533 31.7032L233.5 0L223.467 31.7032H243.533ZM249.734 51.2968L276 31.7032H243.533L246.871 42.2504L249.734 51.2968ZM253.566 63.4064H233.5L219.708 53.118L217.266 51.2968L207.234 83L233.5 63.4064L259.766 83L253.566 63.4064Z" fill="#112D51"/>
<path fill-rule="evenodd" clip-rule="evenodd" d="M205.139 42.2504L191 31.7032H223.467H243.533L246.871 42.2504H205.139ZM219.708 53.118L233.5 63.4064H253.566L250.31 53.118H219.708Z" fill="#B9383A"/>
<path d="M249.734 51.2968L246.871 42.2504H205.139L217.266 51.2968L219.708 53.118H250.31L249.734 51.2968Z" fill="white"/>
<path d="M205.5 42.5H206L220 53H219.5L205.5 42.5Z" fill="#D9D9D9"/>
<defs>
<clipPath id="clip0_580_2943">
<rect width="187" height="30" fill="white" transform="translate(0 47)"/>
</clipPath>
</defs>
</svg>
