<svg width="21" height="20" viewBox="0 0 21 20" fill="none" xmlns="http://www.w3.org/2000/svg">
<path d="M3 5.2C3 4.32 3.70049 3.6 4.55664 3.6H15.4531C15.8659 3.6 16.2619 3.76857 16.5538 4.06863C16.8457 4.36869 17.0097 4.77565 17.0097 5.2V16.4C17.0097 16.8243 16.8457 17.2313 16.5538 17.5314C16.2619 17.8314 15.8659 18 15.4531 18H4.55664C4.14379 18 3.74785 17.8314 3.45593 17.5314C3.164 17.2313 3 16.8243 3 16.4V5.2ZM4.55664 6.8V16.4H15.4531V6.8H4.55664ZM6.11327 2H7.66991V3.6H6.11327V2ZM12.3398 2H13.8965V3.6H12.3398V2ZM6.11327 9.2H7.66991V10.8H6.11327V9.2ZM6.11327 12.4H7.66991V14H6.11327V12.4ZM9.22655 9.2H10.7832V10.8H9.22655V9.2ZM9.22655 12.4H10.7832V14H9.22655V12.4ZM12.3398 9.2H13.8965V10.8H12.3398V9.2ZM12.3398 12.4H13.8965V14H12.3398V12.4Z" fill="#5A607A"/>
</svg>
