<svg width="100" height="100" viewBox="0 0 100 100" fill="none" xmlns="http://www.w3.org/2000/svg">
<circle cx="50" cy="50" r="50" fill="#040028"/>
<path fill-rule="evenodd" clip-rule="evenodd" d="M52.3629 28.3258L50.0048 21L47.6467 28.3258H52.3629ZM53.8203 32.8534L59.994 28.3258H52.3629L53.1474 30.763L53.8203 32.8534ZM54.721 35.6516H50.0048L46.7631 33.2742L46.1893 32.8534L43.8311 40.1792L50.0048 35.6516L56.1784 40.1792L54.721 35.6516Z" fill="white"/>
<path fill-rule="evenodd" clip-rule="evenodd" d="M43.3389 30.763L40.0156 28.3258H47.6467H52.3629L53.1474 30.763H43.3389ZM46.7631 33.2742L50.0048 35.6516H54.721L53.9558 33.2742H46.7631Z" fill="#B9383A"/>
<path d="M53.8203 32.8534L53.1474 30.763H43.3389L46.1893 32.8534L46.7631 33.2742H53.9558L53.8203 32.8534Z" fill="#112D51"/>
<path d="M17.5409 63.4231H20.2599V67.2394C19.8651 67.377 19.4583 67.4811 19.0394 67.5517C18.6206 67.6223 18.1502 67.6575 17.6284 67.6575C16.8525 67.6575 16.1985 67.4988 15.6664 67.1812C15.1342 66.8636 14.7291 66.4084 14.451 65.8155C14.1764 65.2227 14.0391 64.5099 14.0391 63.6771C14.0391 62.8761 14.1918 62.1774 14.4974 61.581C14.8029 60.9847 15.2475 60.5224 15.8312 60.1943C16.4148 59.8661 17.1186 59.702 17.9425 59.702C18.3545 59.702 18.7493 59.7426 19.127 59.8237C19.508 59.9049 19.8582 60.0178 20.1775 60.1625L19.7964 61.0782C19.5286 60.9547 19.2317 60.8506 18.9055 60.7659C18.5828 60.6777 18.2481 60.6336 17.9013 60.6336C17.3246 60.6336 16.8285 60.7589 16.4131 61.0094C16.0011 61.2599 15.6835 61.6128 15.4604 62.068C15.2407 62.5232 15.1308 63.0631 15.1308 63.6877C15.1308 64.2982 15.2235 64.831 15.4089 65.2862C15.5943 65.7414 15.8844 66.0961 16.2792 66.3501C16.674 66.6042 17.1821 66.7313 17.8035 66.7313C18.1159 66.7313 18.382 66.7136 18.6017 66.6783C18.8249 66.643 19.0291 66.6007 19.2145 66.5513V64.3705H17.5409V63.4231Z" fill="white"/>
<path d="M28.6797 63.6718C28.6797 64.2682 28.6059 64.8116 28.4582 65.3021C28.3106 65.7891 28.0909 66.209 27.7991 66.5619C27.5107 66.9112 27.1485 67.1812 26.7125 67.3717C26.2799 67.5623 25.7735 67.6575 25.1933 67.6575C24.6028 67.6575 24.0878 67.5623 23.6484 67.3717C23.2124 67.1812 22.8502 66.9095 22.5618 66.5566C22.2734 66.2037 22.0571 65.782 21.913 65.2915C21.7722 64.801 21.7018 64.2576 21.7018 63.6612C21.7018 62.8673 21.8288 62.1721 22.0829 61.5758C22.3369 60.9794 22.7232 60.5171 23.2416 60.189C23.7634 59.8573 24.4191 59.6914 25.2088 59.6914C25.9709 59.6914 26.6095 59.8555 27.1245 60.1837C27.6394 60.5118 28.0274 60.9741 28.2883 61.5705C28.5492 62.1633 28.6797 62.8637 28.6797 63.6718ZM22.809 63.6718C22.809 64.2999 22.8931 64.8434 23.0613 65.3021C23.233 65.7573 23.4939 66.1102 23.8441 66.3607C24.1977 66.6077 24.6474 66.7313 25.1933 66.7313C25.746 66.7313 26.1975 66.6077 26.5477 66.3607C26.8979 66.1102 27.1554 65.7573 27.3201 65.3021C27.4849 64.8434 27.5673 64.2999 27.5673 63.6718C27.5673 62.7191 27.3785 61.9745 27.0009 61.4381C26.6232 60.8982 26.0259 60.6283 25.2088 60.6283C24.6595 60.6283 24.208 60.7518 23.8544 60.9988C23.5008 61.2423 23.2381 61.5916 23.0665 62.0468C22.8948 62.4985 22.809 63.0402 22.809 63.6718Z" fill="white"/>
<path d="M35.7451 59.8131L33.0775 67.5517H31.9806L29.3131 59.8131H30.4048L32.0785 64.7887C32.1403 64.9616 32.1986 65.1451 32.2536 65.3392C32.3085 65.5297 32.36 65.7203 32.408 65.9108C32.4561 66.1014 32.4956 66.276 32.5265 66.4348C32.5574 66.276 32.5952 66.1014 32.6398 65.9108C32.6878 65.7203 32.7411 65.5279 32.7994 65.3339C32.8578 65.1363 32.9162 64.9492 32.9745 64.7728L34.643 59.8131H35.7451Z" fill="white"/>
<path d="M40.9874 67.5517H36.7595V59.8131H40.9874V60.7447H37.8152V63.0472H40.7969V63.9682H37.8152V66.6148H40.9874V67.5517Z" fill="white"/>
<path d="M44.7055 59.8131C45.3407 59.8131 45.8642 59.8943 46.2762 60.0566C46.6916 60.2154 47.0006 60.4589 47.2031 60.7871C47.4057 61.1117 47.507 61.5246 47.507 62.0257C47.507 62.4209 47.4366 62.7544 47.2958 63.0261C47.1551 63.2978 46.9697 63.5201 46.7397 63.693C46.5131 63.8659 46.2693 64.0018 46.0084 64.1006L48.1146 67.5517H46.9045L45.0712 64.3864H43.6859V67.5517H42.6302V59.8131H44.7055ZM44.6386 60.7342H43.6859V63.4813H44.7107C45.3046 63.4813 45.7389 63.3631 46.0136 63.1266C46.2882 62.8867 46.4255 62.5338 46.4255 62.068C46.4255 61.5846 46.2796 61.2423 45.9878 61.0412C45.696 60.8365 45.2463 60.7342 44.6386 60.7342Z" fill="white"/>
<path d="M55.3397 67.5517H54.0728L50.1745 61.2105H50.1333C50.1436 61.4011 50.1556 61.611 50.1694 61.8404C50.1831 62.0663 50.1934 62.3044 50.2003 62.555C50.2106 62.802 50.2174 63.0525 50.2209 63.3066V67.5517H49.2527V59.8131H50.5092L54.3921 66.1225H54.4282C54.4213 65.9673 54.4127 65.775 54.4024 65.5456C54.3921 65.3162 54.3818 65.0745 54.3715 64.8204C54.3647 64.5628 54.3612 64.3194 54.3612 64.09V59.8131H55.3397V67.5517Z" fill="white"/>
<path d="M60.6387 67.5517L58.2904 60.8982H58.2492C58.2595 61.0429 58.2698 61.2299 58.2801 61.4593C58.2939 61.6851 58.3042 61.9322 58.311 62.2003C58.3213 62.465 58.3265 62.7261 58.3265 62.9837V67.5517H57.3583V59.8131H58.8775L61.1073 66.1173H61.1434L63.4298 59.8131H64.9387V67.5517H63.9191V62.9202C63.9191 62.6873 63.9225 62.4456 63.9294 62.1951C63.9362 61.941 63.9448 61.701 63.9551 61.4752C63.9688 61.2458 63.9809 61.057 63.9912 60.9088H63.9448L61.5399 67.5517H60.6387Z" fill="white"/>
<path d="M71.1853 67.5517H66.9574V59.8131H71.1853V60.7447H68.0131V63.0472H70.9948V63.9682H68.0131V66.6148H71.1853V67.5517Z" fill="white"/>
<path d="M78.915 67.5517H77.6482L73.7498 61.2105H73.7086C73.7189 61.4011 73.731 61.611 73.7447 61.8404C73.7584 62.0663 73.7687 62.3044 73.7756 62.555C73.7859 62.802 73.7928 63.0525 73.7962 63.3066V67.5517H72.828V59.8131H74.0846L77.9675 66.1225H78.0035C77.9966 65.9673 77.9881 65.775 77.9778 65.5456C77.9675 65.3162 77.9572 65.0745 77.9469 64.8204C77.94 64.5628 77.9366 64.3194 77.9366 64.09V59.8131H78.915V67.5517Z" fill="white"/>
<path d="M83.3952 67.5517H82.3344V60.75H80.0479V59.8131H85.6766V60.75H83.3952V67.5517Z" fill="white"/>
<path d="M25.1985 47.5084C24.8117 47.5084 24.4643 47.5791 24.1562 47.7204C23.8516 47.8583 23.5932 48.0614 23.381 48.33C23.1687 48.595 23.0061 48.9148 22.8932 49.2893C22.7802 49.6638 22.7238 50.0861 22.7238 50.556C22.7238 51.1815 22.8128 51.7221 22.9907 52.1779C23.1722 52.6337 23.4443 52.9853 23.8071 53.2326C24.1699 53.48 24.6269 53.6036 25.178 53.6036C25.5066 53.6036 25.8198 53.5736 26.1176 53.5135C26.4188 53.4499 26.7183 53.3687 27.0161 53.2697V54.2025C26.7286 54.3156 26.4308 54.3986 26.1227 54.4517C25.8181 54.5082 25.4604 54.5365 25.0496 54.5365C24.2829 54.5365 23.6445 54.3721 23.1345 54.0435C22.6279 53.7149 22.2497 53.2538 21.9998 52.6602C21.7499 52.063 21.625 51.3599 21.625 50.5507C21.625 49.9642 21.7037 49.4289 21.8612 48.9448C22.0186 48.4572 22.2497 48.0367 22.5543 47.6833C22.859 47.3265 23.2321 47.0526 23.6736 46.8618C24.1186 46.6675 24.6303 46.5703 25.2088 46.5703C25.5853 46.5703 25.9516 46.6127 26.3075 46.6975C26.667 46.7788 26.9973 46.8936 27.2985 47.042L26.9083 47.9484C26.6584 47.8318 26.3897 47.7293 26.1022 47.6409C25.8181 47.5526 25.5169 47.5084 25.1985 47.5084Z" fill="#2CA8FF"/>
<path d="M33.3211 54.4305L32.4893 52.1249H29.5473L28.7258 54.4305H27.6322L30.4972 46.6498H31.5754L34.425 54.4305H33.3211ZM32.1967 51.1815L31.406 48.8971C31.382 48.8193 31.3444 48.7027 31.293 48.5473C31.2451 48.3918 31.1955 48.231 31.1441 48.065C31.0962 47.8989 31.0568 47.7611 31.026 47.6515C30.9918 47.7964 30.9524 47.9501 30.9079 48.1127C30.8634 48.2717 30.8189 48.4218 30.7744 48.5632C30.7334 48.701 30.6991 48.8123 30.6718 48.8971L29.8708 51.1815H32.1967Z" fill="#2CA8FF"/>
<path d="M37.5159 46.6816C38.1491 46.6816 38.6711 46.7629 39.0819 46.9254C39.496 47.0844 39.8041 47.3282 40.006 47.6568C40.208 47.9819 40.309 48.3953 40.309 48.8971C40.309 49.2928 40.2388 49.6267 40.0985 49.8988C39.9581 50.1709 39.7733 50.3935 39.5439 50.5666C39.318 50.7398 39.075 50.8758 38.8149 50.9747L40.9148 54.4305H39.7082L37.8804 51.261H36.4993V54.4305H35.4467V46.6816H37.5159ZM37.4491 47.6038H36.4993V50.3546H37.521C38.1132 50.3546 38.5462 50.2363 38.82 49.9995C39.0938 49.7592 39.2308 49.4059 39.2308 48.9395C39.2308 48.4554 39.0853 48.1127 38.7943 47.9113C38.5034 47.7063 38.055 47.6038 37.4491 47.6038Z" fill="#2CA8FF"/>
<path d="M46.2648 54.4305H42.0495V46.6816H46.2648V47.6144H43.1021V49.92H46.0749V50.8422H43.1021V53.4923H46.2648V54.4305Z" fill="#2CA8FF"/>
<path d="M52.118 54.4305H47.9027V46.6816H52.118V47.6144H48.9552V49.92H51.928V50.8422H48.9552V53.4923H52.118V54.4305Z" fill="#2CA8FF"/>
<path d="M55.825 46.6816C56.4583 46.6816 56.9803 46.7629 57.391 46.9254C57.8052 47.0844 58.1133 47.3282 58.3152 47.6568C58.5172 47.9819 58.6181 48.3953 58.6181 48.8971C58.6181 49.2928 58.548 49.6267 58.4076 49.8988C58.2673 50.1709 58.0824 50.3935 57.8531 50.5666C57.6272 50.7398 57.3842 50.8758 57.124 50.9747L59.224 54.4305H58.0174L56.1896 51.261H54.8084V54.4305H53.7559V46.6816H55.825ZM55.7583 47.6038H54.8084V50.3546H55.8302C56.4223 50.3546 56.8553 50.2363 57.1292 49.9995C57.403 49.7592 57.5399 49.4059 57.5399 48.9395C57.5399 48.4554 57.3944 48.1127 57.1035 47.9113C56.8125 47.7063 56.3641 47.6038 55.7583 47.6038Z" fill="#2CA8FF"/>
<path d="M64.6459 52.3475C64.6459 52.8068 64.5346 53.2008 64.3121 53.5294C64.0931 53.8545 63.7833 54.1036 63.3828 54.2767C62.9823 54.4499 62.5066 54.5365 61.9555 54.5365C61.6782 54.5365 61.4129 54.5206 61.1596 54.4888C60.9098 54.4605 60.677 54.4181 60.4614 54.3615C60.2457 54.305 60.0506 54.2343 59.8761 54.1495V53.1213C60.1602 53.2414 60.4888 53.3545 60.8619 53.4605C61.2349 53.563 61.62 53.6142 62.0171 53.6142C62.3628 53.6142 62.652 53.5665 62.8848 53.4711C63.121 53.3722 63.299 53.2344 63.4188 53.0577C63.5386 52.881 63.5985 52.669 63.5985 52.4217C63.5985 52.1743 63.5403 51.9676 63.4239 51.8016C63.3075 51.632 63.1227 51.4765 62.8694 51.3352C62.6195 51.1938 62.2909 51.0436 61.8836 50.8846C61.5995 50.7786 61.3411 50.6585 61.1083 50.5242C60.8755 50.3864 60.6736 50.2292 60.5024 50.0525C60.3347 49.8758 60.2047 49.6691 60.1122 49.4324C60.0198 49.1921 59.9736 48.9165 59.9736 48.6056C59.9736 48.178 60.0746 47.8123 60.2765 47.5084C60.4819 47.2046 60.7677 46.9731 61.134 46.8141C61.5002 46.6516 61.9247 46.5703 62.4073 46.5703C62.8044 46.5703 63.174 46.6109 63.5163 46.6922C63.862 46.7735 64.1906 46.8848 64.5021 47.0261L64.1684 47.9272C63.8774 47.8035 63.5848 47.7028 63.2904 47.625C62.996 47.5473 62.6914 47.5084 62.3765 47.5084C62.0855 47.5084 61.8391 47.5526 61.6371 47.6409C61.4386 47.7293 61.2863 47.8547 61.1802 48.0173C61.0775 48.1798 61.0262 48.3724 61.0262 48.595C61.0262 48.8458 61.0809 49.0543 61.1905 49.2204C61.3 49.3865 61.4728 49.5366 61.709 49.6709C61.9452 49.8052 62.2533 49.9483 62.6332 50.1002C63.0611 50.2698 63.4239 50.45 63.7217 50.6408C64.0229 50.8316 64.2522 51.0613 64.4097 51.3299C64.5672 51.5984 64.6459 51.9376 64.6459 52.3475Z" fill="#2CA8FF"/>
<path d="M68.8612 54.4305V46.6816H69.9137V54.4305H68.8612Z" fill="#2CA8FF"/>
<path d="M78.0106 54.4305H76.7476L72.8609 48.0809H72.8198C72.8301 48.2717 72.842 48.4819 72.8557 48.7116C72.8694 48.9377 72.8797 49.1762 72.8865 49.4271C72.8968 49.6744 72.9037 49.9253 72.9071 50.1797V54.4305H71.9418V46.6816H73.1946L77.0659 52.9994H77.1019C77.095 52.8439 77.0865 52.6514 77.0762 52.4217C77.0659 52.192 77.0557 51.95 77.0454 51.6956C77.0385 51.4376 77.0351 51.1938 77.0351 50.9641V46.6816H78.0106V54.4305Z" fill="#2CA8FF"/>
</svg>
