<svg width="23" height="18" viewBox="0 0 23 18" fill="none" xmlns="http://www.w3.org/2000/svg">
<path d="M0.570312 2.19273C0.570313 1.61118 0.802098 1.05345 1.21468 0.642234C1.62726 0.231019 2.18684 0 2.77031 0H20.3703C20.9538 0 21.5134 0.231019 21.9259 0.642234C22.3385 1.05345 22.5703 1.61118 22.5703 2.19273V3.9586L11.5703 10.1245L0.570312 3.9586V2.19273Z" fill="white"/>
<path d="M0.570312 6.75V15.97C0.570313 16.5083 0.802098 17.0245 1.21468 17.4051C1.62726 17.7857 2.18684 17.9995 2.77031 17.9995H20.3703C20.9538 17.9995 21.5134 17.7857 21.9259 17.4051C22.3385 17.0245 22.5703 16.5083 22.5703 15.97V6.75L11.5703 12.4583L0.570312 6.75Z" fill="white"/>
</svg>
