<svg width="13" height="13" viewBox="0 0 13 13" fill="none" xmlns="http://www.w3.org/2000/svg">
<path d="M0 6.5C0 4.77609 0.68482 3.12279 1.90381 1.90381C3.12279 0.68482 4.77609 0 6.5 0C8.22391 0 9.87721 0.68482 11.0962 1.90381C12.3152 3.12279 13 4.77609 13 6.5C13 8.22391 12.3152 9.87721 11.0962 11.0962C9.87721 12.3152 8.22391 13 6.5 13C4.77609 13 3.12279 12.3152 1.90381 11.0962C0.68482 9.87721 0 8.22391 0 6.5ZM6.09375 0.875063C5.54937 1.04081 5.00906 1.54131 4.56056 2.38225C4.41279 2.66183 4.2857 2.95185 4.18031 3.25H6.09375V0.875063ZM3.32313 3.25C3.45855 2.81841 3.63258 2.39991 3.84313 1.99956C3.98361 1.73392 4.14585 1.48037 4.32819 1.2415C3.3215 1.65898 2.45538 2.35594 1.83219 3.25H3.32313ZM2.85025 6.09375C2.87462 5.38119 2.96237 4.69788 3.10375 4.0625H1.36013C1.05716 4.70035 0.876373 5.38932 0.827125 6.09375H2.85025ZM3.93819 4.0625C3.77838 4.72859 3.68637 5.40914 3.66356 6.09375H6.09375V4.0625H3.93819ZM6.90625 4.0625V6.09375H9.33562C9.31311 5.40916 9.22137 4.72861 9.06181 4.0625H6.90625ZM3.66438 6.90625C3.68692 7.59083 3.77865 8.27138 3.93819 8.9375H6.09375V6.90625H3.66438ZM6.90625 6.90625V8.9375H9.06181C9.21375 8.31594 9.31044 7.631 9.33644 6.90625H6.90625ZM4.18031 9.75C4.29244 10.0636 4.42 10.3545 4.56056 10.6177C5.00906 11.4587 5.55019 11.9584 6.09375 12.1249V9.75H4.18031ZM4.32819 11.7585C4.14584 11.5196 3.9836 11.2661 3.84313 11.0004C3.63259 10.6001 3.45855 10.1816 3.32313 9.75H1.83219C2.45535 10.6441 3.32148 11.3411 4.32819 11.7585ZM3.10375 8.9375C2.95682 8.26968 2.87196 7.5897 2.85025 6.90625H0.827125C0.8775 7.62937 1.06356 8.31431 1.36013 8.9375H3.10375ZM8.67181 11.7585C9.67852 11.3411 10.5447 10.6441 11.1678 9.75H9.67687C9.54144 10.1816 9.36741 10.6001 9.15688 11.0004C9.01643 11.2661 8.85418 11.5197 8.67181 11.7585ZM6.90625 9.75V12.1249C7.45063 11.9592 7.99094 11.4587 8.43944 10.6177C8.58 10.3545 8.70756 10.0636 8.81969 9.75H6.90625ZM9.89625 8.9375H11.6399C11.9364 8.31431 12.1225 7.62937 12.1729 6.90625H10.1497C10.128 7.5897 10.0432 8.26968 9.89625 8.9375ZM12.1729 6.09375C12.1236 5.38932 11.9428 4.70036 11.6399 4.0625H9.89625C10.0376 4.69788 10.1254 5.38119 10.1497 6.09375H12.1729ZM9.15688 1.99956C9.35756 2.37656 9.53225 2.79581 9.67687 3.25H11.1678C10.5447 2.35591 9.67852 1.65894 8.67181 1.2415C8.84894 1.47225 9.01144 1.72737 9.15688 1.99956ZM8.81969 3.25C8.71431 2.95185 8.58722 2.66182 8.43944 2.38225C7.99094 1.54131 7.45063 1.04163 6.90625 0.875063V3.25H8.81969Z" fill="white"/>
</svg>
