<svg width="20" height="20" viewBox="0 0 20 20" fill="none" xmlns="http://www.w3.org/2000/svg">
<path d="M3 5.2C3 4.32 3.7 3.6 4.55556 3.6H15.4444C15.857 3.6 16.2527 3.76857 16.5444 4.06863C16.8361 4.36869 17 4.77565 17 5.2V16.4C17 16.8243 16.8361 17.2313 16.5444 17.5314C16.2527 17.8314 15.857 18 15.4444 18H4.55556C4.143 18 3.74733 17.8314 3.45561 17.5314C3.16389 17.2313 3 16.8243 3 16.4V5.2ZM4.55556 6.8V16.4H15.4444V6.8H4.55556ZM6.11111 2H7.66667V3.6H6.11111V2ZM12.3333 2H13.8889V3.6H12.3333V2ZM6.11111 9.2H7.66667V10.8H6.11111V9.2ZM6.11111 12.4H7.66667V14H6.11111V12.4ZM9.22222 9.2H10.7778V10.8H9.22222V9.2ZM9.22222 12.4H10.7778V14H9.22222V12.4ZM12.3333 9.2H13.8889V10.8H12.3333V9.2ZM12.3333 12.4H13.8889V14H12.3333V12.4Z" fill="#666666"/>
</svg>
