<svg width="20" height="20" viewBox="0 0 20 20" fill="none" xmlns="http://www.w3.org/2000/svg">
<path d="M2.0274 4.28772C1.66406 4.70105 1.66406 5.41105 1.66406 6.82939V14.6577C1.66406 15.6627 1.66406 16.1652 1.92656 16.5436C2.18823 16.9219 2.64656 17.0811 3.56323 17.3986L4.64156 17.7727C5.22573 17.9752 5.6749 18.1311 6.0524 18.2311C6.29906 18.2969 6.5249 18.1036 6.5249 17.8486V5.22355C6.52201 5.12235 6.4857 5.02495 6.42163 4.94655C6.35756 4.86816 6.26933 4.81319 6.17073 4.79022C5.84656 4.70772 5.45656 4.57272 4.9224 4.38772C3.62823 3.93855 2.98073 3.71439 2.48906 3.94189C2.31271 4.02366 2.15544 4.14146 2.0274 4.28772ZM10.5141 2.89939L9.23406 3.78689C8.77156 4.10772 8.43156 4.34355 8.1424 4.51105C8.07426 4.54912 8.01731 4.6044 7.97724 4.67138C7.93717 4.73836 7.91538 4.81468 7.91406 4.89272V17.4319C7.91406 17.7402 8.23406 17.9336 8.49406 17.7669C8.77323 17.5886 9.09323 17.3669 9.48073 17.0986L10.7607 16.2111C11.2232 15.8902 11.5632 15.6544 11.8524 15.4869C11.9205 15.4488 11.9775 15.3935 12.0176 15.3266C12.0576 15.2596 12.0794 15.1833 12.0807 15.1052V2.56522C12.0807 2.25605 11.7607 2.06355 11.5007 2.22939C11.2216 2.40855 10.9016 2.63022 10.5141 2.89939ZM16.4307 2.59855L15.3532 2.22522C14.7691 2.02272 14.3199 1.86689 13.9424 1.76689C13.6957 1.70105 13.4699 1.89439 13.4699 2.14939V14.7744C13.4728 14.8756 13.5091 14.973 13.5732 15.0514C13.6372 15.1298 13.7255 15.1847 13.8241 15.2077C14.1482 15.2902 14.5382 15.4244 15.0724 15.6102C16.3666 16.0594 17.0141 16.2836 17.5057 16.0561C17.6821 15.9743 17.8393 15.8565 17.9674 15.7102C18.3307 15.2969 18.3307 14.5869 18.3307 13.1686V5.34022C18.3307 4.33522 18.3307 3.83189 18.0682 3.45439C17.8066 3.07605 17.3482 2.91689 16.4316 2.59939L16.4307 2.59855Z" fill="#666666"/>
</svg>
