<svg width="16" height="16" viewBox="0 0 16 16" fill="none" xmlns="http://www.w3.org/2000/svg">
<path d="M12.4294 14.0184H3.19512C3.17667 14.0184 3.15839 14.0146 3.14133 14.007C3.12427 13.9994 3.10877 13.9883 3.09572 13.9743C3.08267 13.9603 3.07233 13.9436 3.06529 13.9253C3.05825 13.9069 3.05464 13.8873 3.05469 13.8674V3.94102C3.05469 3.85762 3.11754 3.79006 3.19512 3.79006L7.04487 3.80837C7.06332 3.80837 7.08158 3.81228 7.09862 3.81986C7.11565 3.82745 7.13114 3.83857 7.14418 3.85259C7.15722 3.8666 7.16756 3.88325 7.17462 3.90156C7.18168 3.91988 7.18531 3.93951 7.18531 3.95933C7.18531 3.97916 7.18168 3.99879 7.17462 4.0171C7.16756 4.03542 7.15722 4.05206 7.14418 4.06608C7.13114 4.08009 7.11565 4.09121 7.09862 4.0988C7.08158 4.10639 7.06332 4.11029 7.04487 4.11029L3.33556 4.09198V13.7172H12.289L12.3263 9.5469C12.3263 9.50686 12.341 9.46846 12.3674 9.44015C12.3937 9.41184 12.4294 9.39594 12.4667 9.39594C12.5039 9.39594 12.5397 9.41184 12.566 9.44015C12.5923 9.46846 12.6071 9.50686 12.6071 9.5469L12.5699 13.8674C12.5699 13.9075 12.5551 13.9459 12.5287 13.9742C12.5024 14.0025 12.4667 14.0184 12.4294 14.0184ZM13.9196 7.01054C13.9011 7.01058 13.8828 7.00671 13.8658 6.99914C13.8487 6.99157 13.8332 6.98045 13.8202 6.96643C13.8071 6.9524 13.7968 6.93574 13.7897 6.9174C13.7827 6.89907 13.7791 6.87942 13.7791 6.85958V2.30192H9.54971C9.51247 2.30192 9.47675 2.28602 9.45041 2.25771C9.42407 2.22939 9.40928 2.191 9.40928 2.15096C9.40928 2.11092 9.42407 2.07253 9.45041 2.04422C9.47675 2.0159 9.51247 2 9.54971 2H13.9199C13.9975 2 14.06 2.06721 14.06 2.15096V6.85993C14.06 6.87975 14.0564 6.89939 14.0494 6.9177C14.0423 6.93602 14.032 6.95266 14.0189 6.96665C14.0059 6.98065 13.9904 6.99174 13.9733 6.99927C13.9563 7.0068 13.938 7.01063 13.9196 7.01054Z" fill="white" stroke="white"/>
<path d="M7.76581 9.39593C7.73948 9.39565 7.7138 9.38647 7.69197 9.36953C7.67014 9.35259 7.65313 9.32865 7.64305 9.30068C7.63296 9.27271 7.63025 9.24195 7.63526 9.21222C7.64027 9.1825 7.65277 9.15512 7.6712 9.1335L13.8304 2.03765C13.8561 2.01212 13.8892 1.99871 13.9231 2.0001C13.957 2.00149 13.9892 2.01757 14.0132 2.04513C14.0372 2.07268 14.0512 2.10966 14.0525 2.14863C14.0537 2.1876 14.0421 2.22568 14.02 2.25521L7.86074 9.3507C7.84829 9.36505 7.83349 9.37643 7.8172 9.3842C7.80091 9.39196 7.78345 9.39595 7.76581 9.39593Z" fill="white" stroke="white"/>
</svg>
