<svg width="8" height="14" viewBox="0 0 8 14" fill="none" xmlns="http://www.w3.org/2000/svg">
<path d="M3.33333 6.19231V2.42308C3.33333 2.34455 3.3125 2.28005 3.27083 2.22957C3.22917 2.17909 3.17593 2.15385 3.11111 2.15385C3.0463 2.15385 2.99306 2.17909 2.95139 2.22957C2.90972 2.28005 2.88889 2.34455 2.88889 2.42308V6.19231C2.88889 6.27083 2.90972 6.33534 2.95139 6.38582C2.99306 6.4363 3.0463 6.46154 3.11111 6.46154C3.17593 6.46154 3.22917 6.4363 3.27083 6.38582C3.3125 6.33534 3.33333 6.27083 3.33333 6.19231ZM8 9.15385C8 9.29968 7.95602 9.42588 7.86806 9.53245C7.78009 9.63902 7.67593 9.69231 7.55556 9.69231H4.57639L4.22222 13.756C4.21296 13.8233 4.18866 13.8808 4.14931 13.9285C4.10995 13.9762 4.0625 14 4.00694 14H4C3.875 14 3.80093 13.9243 3.77778 13.7728L3.25 9.69231H0.444444C0.324074 9.69231 0.219907 9.63902 0.131944 9.53245C0.0439815 9.42588 0 9.29968 0 9.15385C0 8.46394 0.181713 7.84275 0.545139 7.29026C0.908565 6.73778 1.31944 6.46154 1.77778 6.46154V2.15385C1.53704 2.15385 1.3287 2.04728 1.15278 1.83413C0.976852 1.62099 0.888889 1.36859 0.888889 1.07692C0.888889 0.785256 0.976852 0.532853 1.15278 0.319712C1.3287 0.106571 1.53704 0 1.77778 0H6.22222C6.46296 0 6.6713 0.106571 6.84722 0.319712C7.02315 0.532853 7.11111 0.785256 7.11111 1.07692C7.11111 1.36859 7.02315 1.62099 6.84722 1.83413C6.6713 2.04728 6.46296 2.15385 6.22222 2.15385V6.46154C6.68056 6.46154 7.09144 6.73778 7.45486 7.29026C7.81829 7.84275 8 8.46394 8 9.15385Z" fill="white"/>
</svg>
