<svg width="349" height="289" viewBox="0 0 349 289" fill="none" xmlns="http://www.w3.org/2000/svg">
<path d="M6.26435 275.041L10.5171 267.028H12.5178L7.19361 276.812V283.011H5.33508V276.9L0 267.028H2.03345L6.26435 275.041Z" fill="#112D51"/>
<path d="M24.7731 276.998C24.7731 277.982 24.6456 278.86 24.3905 279.633C24.1354 280.405 23.7673 281.058 23.2863 281.59C22.8053 282.122 22.2222 282.53 21.5371 282.814C20.8593 283.091 20.0904 283.23 19.2303 283.23C18.4286 283.23 17.6925 283.091 17.022 282.814C16.3587 282.53 15.7829 282.122 15.2946 281.59C14.8136 281.058 14.4382 280.405 14.1686 279.633C13.9062 278.86 13.775 277.982 13.775 276.998C13.775 275.686 13.9973 274.571 14.4419 273.653C14.8865 272.727 15.5206 272.024 16.3441 271.543C17.175 271.054 18.1626 270.81 19.3069 270.81C20.4001 270.81 21.3549 271.054 22.1712 271.543C22.9948 272.031 23.6325 272.738 24.0844 273.664C24.5436 274.582 24.7731 275.694 24.7731 276.998ZM15.6554 276.998C15.6554 277.96 15.7829 278.795 16.038 279.502C16.2931 280.209 16.6867 280.755 17.2188 281.142C17.7508 281.528 18.4359 281.721 19.2741 281.721C20.1049 281.721 20.7864 281.528 21.3185 281.142C21.8578 280.755 22.255 280.209 22.5101 279.502C22.7652 278.795 22.8927 277.96 22.8927 276.998C22.8927 276.043 22.7652 275.22 22.5101 274.527C22.255 273.828 21.8614 273.288 21.3294 272.909C20.7973 272.53 20.1086 272.341 19.2631 272.341C18.0168 272.341 17.1021 272.753 16.5191 273.576C15.9433 274.4 15.6554 275.54 15.6554 276.998Z" fill="#112D51"/>
<path d="M37.8047 271.029V283.011H36.3179L36.0555 281.327H35.9571C35.7093 281.743 35.3886 282.093 34.9951 282.377C34.6015 282.661 34.1569 282.873 33.6613 283.011C33.173 283.157 32.6519 283.23 32.0979 283.23C31.1505 283.23 30.356 283.077 29.7146 282.771C29.0733 282.464 28.5886 281.991 28.2606 281.349C27.9399 280.708 27.7796 279.884 27.7796 278.879V271.029H29.6163V278.747C29.6163 279.746 29.8422 280.493 30.2941 280.989C30.7459 281.477 31.4347 281.721 32.3603 281.721C33.2495 281.721 33.9565 281.553 34.4812 281.218C35.0133 280.883 35.3959 280.391 35.6292 279.742C35.8624 279.086 35.979 278.285 35.979 277.337V271.029H37.8047Z" fill="#112D51"/>
<path d="M47.0865 270.81C47.327 270.81 47.5784 270.825 47.8408 270.854C48.1032 270.876 48.3364 270.909 48.5405 270.952L48.3109 272.636C48.1141 272.585 47.8955 272.545 47.6549 272.516C47.4144 272.487 47.1885 272.472 46.9771 272.472C46.4961 272.472 46.0406 272.57 45.6106 272.767C45.1878 272.957 44.8161 273.234 44.4954 273.598C44.1748 273.955 43.9233 274.389 43.7411 274.899C43.5589 275.402 43.4678 275.963 43.4678 276.583V283.011H41.642V271.029H43.1507L43.3475 273.237H43.4241C43.6719 272.793 43.9707 272.388 44.3205 272.024C44.6704 271.652 45.0749 271.357 45.534 271.138C46.0005 270.92 46.518 270.81 47.0865 270.81Z" fill="#112D51"/>
<path d="M61.419 283.23C60.3403 283.23 59.3892 283.007 58.5656 282.563C57.742 282.118 57.1007 281.44 56.6415 280.529C56.1823 279.618 55.9527 278.47 55.9527 277.086C55.9527 275.635 56.1933 274.451 56.6743 273.533C57.1626 272.607 57.8331 271.922 58.6859 271.477C59.5386 271.033 60.508 270.81 61.5939 270.81C62.1916 270.81 62.7674 270.872 63.3213 270.996C63.8825 271.113 64.3416 271.262 64.6988 271.444L64.1521 272.964C63.7877 272.818 63.365 272.687 62.884 272.57C62.4102 272.454 61.9656 272.396 61.5502 272.396C60.7193 272.396 60.0269 272.574 59.473 272.931C58.9264 273.288 58.5146 273.813 58.2376 274.506C57.968 275.198 57.8331 276.051 57.8331 277.064C57.8331 278.033 57.9643 278.86 58.2267 279.545C58.4964 280.231 58.8936 280.755 59.4184 281.12C59.9504 281.477 60.6137 281.655 61.4081 281.655C62.0422 281.655 62.6143 281.59 63.1245 281.459C63.6347 281.32 64.0975 281.16 64.5129 280.978V282.596C64.1121 282.8 63.6638 282.956 63.1682 283.066C62.6799 283.175 62.0968 283.23 61.419 283.23Z" fill="#112D51"/>
<path d="M71.8377 270.832C73.2662 270.832 74.3267 271.153 75.0191 271.794C75.7115 272.436 76.0577 273.46 76.0577 274.866V283.011H74.7348L74.385 281.24H74.2975C73.9623 281.677 73.6124 282.045 73.248 282.344C72.8836 282.636 72.4609 282.858 71.9798 283.011C71.5061 283.157 70.923 283.23 70.2306 283.23C69.5018 283.23 68.8531 283.102 68.2846 282.847C67.7234 282.592 67.2789 282.206 66.9509 281.688C66.6302 281.171 66.4698 280.515 66.4698 279.72C66.4698 278.525 66.9436 277.607 67.8911 276.965C68.8386 276.324 70.2817 275.974 72.2204 275.916L74.2866 275.828V275.096C74.2866 274.061 74.0643 273.336 73.6197 272.92C73.1751 272.505 72.5483 272.297 71.7393 272.297C71.1125 272.297 70.5149 272.388 69.9464 272.57C69.3779 272.753 68.8386 272.968 68.3284 273.215L67.7708 271.838C68.3102 271.561 68.9297 271.324 69.6294 271.127C70.329 270.931 71.0652 270.832 71.8377 270.832ZM74.2647 277.107L72.439 277.184C70.9449 277.242 69.8917 277.486 69.2795 277.916C68.6673 278.346 68.3612 278.955 68.3612 279.742C68.3612 280.427 68.5689 280.934 68.9843 281.262C69.3998 281.59 69.95 281.754 70.6351 281.754C71.6992 281.754 72.5702 281.459 73.248 280.868C73.9258 280.278 74.2647 279.392 74.2647 278.212V277.107Z" fill="#112D51"/>
<path d="M85.241 270.81C85.4815 270.81 85.733 270.825 85.9954 270.854C86.2577 270.876 86.491 270.909 86.695 270.952L86.4655 272.636C86.2687 272.585 86.05 272.545 85.8095 272.516C85.569 272.487 85.3431 272.472 85.1317 272.472C84.6507 272.472 84.1951 272.57 83.7651 272.767C83.3424 272.957 82.9707 273.234 82.65 273.598C82.3293 273.955 82.0779 274.389 81.8957 274.899C81.7135 275.402 81.6223 275.963 81.6223 276.583V283.011H79.7966V271.029H81.3053L81.5021 273.237H81.5786C81.8264 272.793 82.1252 272.388 82.4751 272.024C82.8249 271.652 83.2294 271.357 83.6886 271.138C84.1551 270.92 84.6725 270.81 85.241 270.81Z" fill="#112D51"/>
<path d="M93.5716 270.81C94.592 270.81 95.4666 271.036 96.1954 271.488C96.9243 271.94 97.4818 272.574 97.8681 273.39C98.2544 274.199 98.4475 275.147 98.4475 276.233V277.359H90.1716C90.1935 278.766 90.5433 279.837 91.2211 280.573C91.8989 281.309 92.8537 281.677 94.0854 281.677C94.8434 281.677 95.514 281.608 96.097 281.47C96.6801 281.331 97.285 281.127 97.9118 280.857V282.453C97.3069 282.723 96.7056 282.92 96.108 283.044C95.5176 283.168 94.8179 283.23 94.0089 283.23C92.8574 283.23 91.8516 282.996 90.9915 282.53C90.1388 282.056 89.4756 281.364 89.0018 280.453C88.5281 279.542 88.2912 278.427 88.2912 277.107C88.2912 275.817 88.5062 274.702 88.9362 273.762C89.3735 272.815 89.9857 272.086 90.7729 271.576C91.5673 271.065 92.5002 270.81 93.5716 270.81ZM93.5498 272.297C92.5804 272.297 91.8078 272.614 91.2321 273.248C90.6563 273.882 90.3137 274.768 90.2044 275.905H96.5453C96.538 275.191 96.425 274.564 96.2064 274.024C95.995 273.478 95.6707 273.055 95.2334 272.756C94.7961 272.45 94.2349 272.297 93.5498 272.297Z" fill="#112D51"/>
<path d="M106.144 270.81C107.164 270.81 108.039 271.036 108.768 271.488C109.497 271.94 110.054 272.574 110.441 273.39C110.827 274.199 111.02 275.147 111.02 276.233V277.359H102.744C102.766 278.766 103.116 279.837 103.794 280.573C104.471 281.309 105.426 281.677 106.658 281.677C107.416 281.677 108.086 281.608 108.669 281.47C109.253 281.331 109.857 281.127 110.484 280.857V282.453C109.879 282.723 109.278 282.92 108.68 283.044C108.09 283.168 107.39 283.23 106.581 283.23C105.43 283.23 104.424 282.996 103.564 282.53C102.711 282.056 102.048 281.364 101.574 280.453C101.1 279.542 100.864 278.427 100.864 277.107C100.864 275.817 101.079 274.702 101.509 273.762C101.946 272.815 102.558 272.086 103.345 271.576C104.14 271.065 105.073 270.81 106.144 270.81ZM106.122 272.297C105.153 272.297 104.38 272.614 103.804 273.248C103.229 273.882 102.886 274.768 102.777 275.905H109.118C109.11 275.191 108.997 274.564 108.779 274.024C108.567 273.478 108.243 273.055 107.806 272.756C107.368 272.45 106.807 272.297 106.122 272.297Z" fill="#112D51"/>
<path d="M119.547 270.81C119.788 270.81 120.039 270.825 120.302 270.854C120.564 270.876 120.797 270.909 121.001 270.952L120.772 272.636C120.575 272.585 120.356 272.545 120.116 272.516C119.875 272.487 119.649 272.472 119.438 272.472C118.957 272.472 118.501 272.57 118.071 272.767C117.649 272.957 117.277 273.234 116.956 273.598C116.636 273.955 116.384 274.389 116.202 274.899C116.02 275.402 115.929 275.963 115.929 276.583V283.011H114.103V271.029H115.612L115.808 273.237H115.885C116.133 272.793 116.432 272.388 116.781 272.024C117.131 271.652 117.536 271.357 117.995 271.138C118.461 270.92 118.979 270.81 119.547 270.81Z" fill="#112D51"/>
<path d="M136.832 279.731C136.832 280.497 136.639 281.142 136.252 281.666C135.873 282.184 135.327 282.574 134.612 282.836C133.905 283.098 133.06 283.23 132.076 283.23C131.238 283.23 130.513 283.164 129.9 283.033C129.288 282.902 128.753 282.716 128.293 282.475V280.803C128.782 281.043 129.365 281.262 130.043 281.459C130.72 281.655 131.413 281.754 132.12 281.754C133.155 281.754 133.905 281.586 134.372 281.251C134.838 280.916 135.072 280.46 135.072 279.884C135.072 279.556 134.977 279.268 134.787 279.021C134.605 278.766 134.295 278.521 133.858 278.288C133.421 278.048 132.816 277.785 132.043 277.501C131.278 277.209 130.615 276.922 130.054 276.637C129.5 276.346 129.07 275.992 128.763 275.577C128.465 275.161 128.315 274.622 128.315 273.959C128.315 272.946 128.723 272.17 129.54 271.63C130.363 271.084 131.442 270.81 132.776 270.81C133.497 270.81 134.171 270.883 134.798 271.029C135.432 271.167 136.023 271.357 136.569 271.597L135.957 273.051C135.461 272.84 134.933 272.662 134.372 272.516C133.811 272.37 133.239 272.297 132.655 272.297C131.817 272.297 131.172 272.436 130.72 272.713C130.276 272.99 130.054 273.369 130.054 273.85C130.054 274.221 130.156 274.527 130.36 274.768C130.571 275.008 130.906 275.234 131.365 275.446C131.825 275.657 132.43 275.905 133.18 276.189C133.931 276.466 134.58 276.754 135.126 277.053C135.673 277.344 136.092 277.701 136.383 278.124C136.682 278.54 136.832 279.075 136.832 279.731Z" fill="#112D51"/>
<path d="M144.364 270.81C145.385 270.81 146.259 271.036 146.988 271.488C147.717 271.94 148.274 272.574 148.661 273.39C149.047 274.199 149.24 275.147 149.24 276.233V277.359H140.964C140.986 278.766 141.336 279.837 142.014 280.573C142.692 281.309 143.646 281.677 144.878 281.677C145.636 281.677 146.307 281.608 146.89 281.47C147.473 281.331 148.078 281.127 148.704 280.857V282.453C148.099 282.723 147.498 282.92 146.901 283.044C146.31 283.168 145.611 283.23 144.802 283.23C143.65 283.23 142.644 282.996 141.784 282.53C140.931 282.056 140.268 281.364 139.794 280.453C139.321 279.542 139.084 278.427 139.084 277.107C139.084 275.817 139.299 274.702 139.729 273.762C140.166 272.815 140.778 272.086 141.565 271.576C142.36 271.065 143.293 270.81 144.364 270.81ZM144.342 272.297C143.373 272.297 142.6 272.614 142.025 273.248C141.449 273.882 141.106 274.768 140.997 275.905H147.338C147.331 275.191 147.218 274.564 146.999 274.024C146.788 273.478 146.463 273.055 146.026 272.756C145.589 272.45 145.027 272.297 144.342 272.297Z" fill="#112D51"/>
<path d="M156.805 270.832C158.234 270.832 159.294 271.153 159.987 271.794C160.679 272.436 161.025 273.46 161.025 274.866V283.011H159.703L159.353 281.24H159.265C158.93 281.677 158.58 282.045 158.216 282.344C157.851 282.636 157.429 282.858 156.948 283.011C156.474 283.157 155.891 283.23 155.198 283.23C154.47 283.23 153.821 283.102 153.252 282.847C152.691 282.592 152.247 282.206 151.919 281.688C151.598 281.171 151.438 280.515 151.438 279.72C151.438 278.525 151.911 277.607 152.859 276.965C153.806 276.324 155.249 275.974 157.188 275.916L159.254 275.828V275.096C159.254 274.061 159.032 273.336 158.587 272.92C158.143 272.505 157.516 272.297 156.707 272.297C156.08 272.297 155.483 272.388 154.914 272.57C154.346 272.753 153.806 272.968 153.296 273.215L152.739 271.838C153.278 271.561 153.897 271.324 154.597 271.127C155.297 270.931 156.033 270.832 156.805 270.832ZM159.232 277.107L157.407 277.184C155.913 277.242 154.859 277.486 154.247 277.916C153.635 278.346 153.329 278.955 153.329 279.742C153.329 280.427 153.537 280.934 153.952 281.262C154.367 281.59 154.918 281.754 155.603 281.754C156.667 281.754 157.538 281.459 158.216 280.868C158.894 280.278 159.232 279.392 159.232 278.212V277.107Z" fill="#112D51"/>
<path d="M170.209 270.81C170.449 270.81 170.701 270.825 170.963 270.854C171.225 270.876 171.459 270.909 171.663 270.952L171.433 272.636C171.236 272.585 171.018 272.545 170.777 272.516C170.537 272.487 170.311 272.472 170.099 272.472C169.618 272.472 169.163 272.57 168.733 272.767C168.31 272.957 167.938 273.234 167.618 273.598C167.297 273.955 167.046 274.389 166.863 274.899C166.681 275.402 166.59 275.963 166.59 276.583V283.011H164.764V271.029H166.273L166.47 273.237H166.546C166.794 272.793 167.093 272.388 167.443 272.024C167.793 271.652 168.197 271.357 168.656 271.138C169.123 270.92 169.64 270.81 170.209 270.81Z" fill="#112D51"/>
<path d="M178.725 283.23C177.646 283.23 176.695 283.007 175.872 282.563C175.048 282.118 174.407 281.44 173.948 280.529C173.488 279.618 173.259 278.47 173.259 277.086C173.259 275.635 173.499 274.451 173.98 273.533C174.469 272.607 175.139 271.922 175.992 271.477C176.845 271.033 177.814 270.81 178.9 270.81C179.498 270.81 180.074 270.872 180.627 270.996C181.189 271.113 181.648 271.262 182.005 271.444L181.458 272.964C181.094 272.818 180.671 272.687 180.19 272.57C179.716 272.454 179.272 272.396 178.856 272.396C178.025 272.396 177.333 272.574 176.779 272.931C176.233 273.288 175.821 273.813 175.544 274.506C175.274 275.198 175.139 276.051 175.139 277.064C175.139 278.033 175.27 278.86 175.533 279.545C175.803 280.231 176.2 280.755 176.725 281.12C177.257 281.477 177.92 281.655 178.714 281.655C179.348 281.655 179.92 281.59 180.431 281.459C180.941 281.32 181.404 281.16 181.819 280.978V282.596C181.418 282.8 180.97 282.956 180.474 283.066C179.986 283.175 179.403 283.23 178.725 283.23Z" fill="#112D51"/>
<path d="M186.476 266V271.084C186.476 271.375 186.469 271.67 186.454 271.969C186.44 272.261 186.414 272.53 186.378 272.778H186.498C186.746 272.355 187.059 272.002 187.438 271.718C187.825 271.426 188.262 271.208 188.75 271.062C189.239 270.909 189.756 270.832 190.303 270.832C191.265 270.832 192.067 270.985 192.708 271.291C193.357 271.597 193.841 272.071 194.162 272.713C194.49 273.354 194.654 274.185 194.654 275.205V283.011H192.861V275.325C192.861 274.327 192.631 273.58 192.172 273.084C191.72 272.589 191.024 272.341 190.084 272.341C189.195 272.341 188.484 272.512 187.952 272.855C187.427 273.19 187.048 273.686 186.815 274.342C186.589 274.997 186.476 275.799 186.476 276.747V283.011H184.662V266H186.476Z" fill="#112D51"/>
<path d="M202.766 288.39C202.394 288.39 202.07 288.361 201.793 288.302C201.516 288.251 201.275 288.189 201.071 288.117V286.641C201.297 286.714 201.527 286.768 201.76 286.805C201.993 286.848 202.256 286.87 202.547 286.87C203.043 286.87 203.444 286.732 203.75 286.455C204.056 286.178 204.209 285.675 204.209 284.946V271.029H206.024V284.902C206.024 285.631 205.907 286.254 205.674 286.772C205.441 287.297 205.084 287.697 204.603 287.974C204.121 288.251 203.509 288.39 202.766 288.39ZM204.045 267.738C204.045 267.33 204.147 267.031 204.351 266.842C204.562 266.645 204.825 266.547 205.138 266.547C205.437 266.547 205.692 266.645 205.903 266.842C206.122 267.031 206.231 267.33 206.231 267.738C206.231 268.139 206.122 268.438 205.903 268.635C205.692 268.832 205.437 268.93 205.138 268.93C204.825 268.93 204.562 268.832 204.351 268.635C204.147 268.438 204.045 268.139 204.045 267.738Z" fill="#112D51"/>
<path d="M219.766 271.029V283.011H218.279L218.017 281.327H217.918C217.671 281.743 217.35 282.093 216.956 282.377C216.563 282.661 216.118 282.873 215.623 283.011C215.134 283.157 214.613 283.23 214.059 283.23C213.112 283.23 212.317 283.077 211.676 282.771C211.034 282.464 210.55 281.991 210.222 281.349C209.901 280.708 209.741 279.884 209.741 278.879V271.029H211.577V278.747C211.577 279.746 211.803 280.493 212.255 280.989C212.707 281.477 213.396 281.721 214.322 281.721C215.211 281.721 215.918 281.553 216.442 281.218C216.974 280.883 217.357 280.391 217.59 279.742C217.824 279.086 217.94 278.285 217.94 277.337V271.029H219.766Z" fill="#112D51"/>
<path d="M231.354 279.731C231.354 280.497 231.161 281.142 230.775 281.666C230.396 282.184 229.849 282.574 229.135 282.836C228.428 283.098 227.583 283.23 226.599 283.23C225.761 283.23 225.035 283.164 224.423 283.033C223.811 282.902 223.275 282.716 222.816 282.475V280.803C223.304 281.043 223.888 281.262 224.565 281.459C225.243 281.655 225.936 281.754 226.643 281.754C227.677 281.754 228.428 281.586 228.895 281.251C229.361 280.916 229.594 280.46 229.594 279.884C229.594 279.556 229.5 279.268 229.31 279.021C229.128 278.766 228.818 278.521 228.381 278.288C227.943 278.048 227.339 277.785 226.566 277.501C225.801 277.209 225.137 276.922 224.576 276.637C224.022 276.346 223.592 275.992 223.286 275.577C222.987 275.161 222.838 274.622 222.838 273.959C222.838 272.946 223.246 272.17 224.062 271.63C224.886 271.084 225.965 270.81 227.298 270.81C228.02 270.81 228.694 270.883 229.321 271.029C229.955 271.167 230.545 271.357 231.092 271.597L230.48 273.051C229.984 272.84 229.456 272.662 228.895 272.516C228.333 272.37 227.761 272.297 227.178 272.297C226.34 272.297 225.695 272.436 225.243 272.713C224.799 272.99 224.576 273.369 224.576 273.85C224.576 274.221 224.678 274.527 224.882 274.768C225.094 275.008 225.429 275.234 225.888 275.446C226.347 275.657 226.952 275.905 227.703 276.189C228.454 276.466 229.102 276.754 229.649 277.053C230.196 277.344 230.615 277.701 230.906 278.124C231.205 278.54 231.354 279.075 231.354 279.731Z" fill="#112D51"/>
<path d="M238.144 281.743C238.442 281.743 238.748 281.717 239.062 281.666C239.375 281.615 239.63 281.553 239.827 281.48V282.891C239.616 282.986 239.321 283.066 238.942 283.131C238.57 283.197 238.205 283.23 237.848 283.23C237.214 283.23 236.638 283.12 236.121 282.902C235.604 282.676 235.188 282.297 234.875 281.765C234.569 281.233 234.416 280.497 234.416 279.556V272.45H232.71V271.565L234.426 270.854L235.148 268.252H236.241V271.029H239.751V272.45H236.241V279.502C236.241 280.252 236.413 280.814 236.755 281.185C237.105 281.557 237.568 281.743 238.144 281.743Z" fill="#112D51"/>
<path d="M251.416 288.39C249.841 288.39 248.628 288.095 247.775 287.504C246.922 286.921 246.496 286.101 246.496 285.044C246.496 284.294 246.733 283.652 247.207 283.12C247.688 282.588 248.351 282.235 249.196 282.06C248.883 281.914 248.613 281.695 248.387 281.404C248.169 281.112 248.059 280.777 248.059 280.398C248.059 279.961 248.18 279.578 248.42 279.25C248.668 278.915 249.043 278.594 249.546 278.288C248.919 278.033 248.409 277.603 248.016 276.998C247.629 276.386 247.436 275.675 247.436 274.866C247.436 274.006 247.615 273.274 247.972 272.669C248.329 272.057 248.846 271.59 249.524 271.269C250.202 270.949 251.022 270.788 251.984 270.788C252.195 270.788 252.407 270.799 252.618 270.821C252.837 270.836 253.045 270.861 253.241 270.898C253.438 270.927 253.609 270.963 253.755 271.007H257.866V272.177L255.657 272.45C255.876 272.734 256.058 273.077 256.204 273.478C256.35 273.879 256.423 274.323 256.423 274.812C256.423 276.007 256.018 276.958 255.209 277.665C254.4 278.365 253.289 278.715 251.875 278.715C251.54 278.715 251.197 278.685 250.847 278.627C250.49 278.824 250.217 279.043 250.027 279.283C249.845 279.524 249.754 279.801 249.754 280.114C249.754 280.347 249.823 280.533 249.962 280.671C250.107 280.81 250.315 280.912 250.585 280.978C250.854 281.036 251.179 281.065 251.558 281.065H253.668C254.972 281.065 255.971 281.338 256.663 281.885C257.363 282.432 257.713 283.23 257.713 284.279C257.713 285.606 257.173 286.622 256.095 287.329C255.016 288.036 253.456 288.39 251.416 288.39ZM251.47 286.969C252.462 286.969 253.281 286.867 253.93 286.663C254.586 286.466 255.074 286.178 255.395 285.799C255.723 285.427 255.887 284.983 255.887 284.465C255.887 283.984 255.778 283.62 255.559 283.372C255.34 283.131 255.02 282.971 254.597 282.891C254.174 282.803 253.657 282.76 253.045 282.76H250.967C250.428 282.76 249.958 282.843 249.557 283.011C249.156 283.179 248.846 283.426 248.628 283.754C248.416 284.082 248.311 284.491 248.311 284.979C248.311 285.628 248.584 286.12 249.131 286.455C249.677 286.797 250.457 286.969 251.47 286.969ZM251.94 277.392C252.808 277.392 253.46 277.173 253.897 276.736C254.335 276.298 254.553 275.661 254.553 274.823C254.553 273.926 254.331 273.256 253.886 272.811C253.442 272.359 252.786 272.133 251.919 272.133C251.088 272.133 250.446 272.366 249.994 272.833C249.55 273.292 249.328 273.966 249.328 274.855C249.328 275.672 249.553 276.298 250.005 276.736C250.457 277.173 251.102 277.392 251.94 277.392Z" fill="#112D51"/>
<path d="M270.559 276.998C270.559 277.982 270.431 278.86 270.176 279.633C269.921 280.405 269.553 281.058 269.072 281.59C268.591 282.122 268.008 282.53 267.322 282.814C266.645 283.091 265.876 283.23 265.016 283.23C264.214 283.23 263.478 283.091 262.807 282.814C262.144 282.53 261.568 282.122 261.08 281.59C260.599 281.058 260.224 280.405 259.954 279.633C259.692 278.86 259.56 277.982 259.56 276.998C259.56 275.686 259.783 274.571 260.227 273.653C260.672 272.727 261.306 272.024 262.13 271.543C262.96 271.054 263.948 270.81 265.092 270.81C266.186 270.81 267.14 271.054 267.957 271.543C268.78 272.031 269.418 272.738 269.87 273.664C270.329 274.582 270.559 275.694 270.559 276.998ZM261.441 276.998C261.441 277.96 261.568 278.795 261.823 279.502C262.079 280.209 262.472 280.755 263.004 281.142C263.536 281.528 264.221 281.721 265.059 281.721C265.89 281.721 266.572 281.528 267.104 281.142C267.643 280.755 268.04 280.209 268.295 279.502C268.551 278.795 268.678 277.96 268.678 276.998C268.678 276.043 268.551 275.22 268.295 274.527C268.04 273.828 267.647 273.288 267.115 272.909C266.583 272.53 265.894 272.341 265.049 272.341C263.802 272.341 262.888 272.753 262.304 273.576C261.729 274.4 261.441 275.54 261.441 276.998Z" fill="#112D51"/>
<path d="M277.566 281.743C277.865 281.743 278.171 281.717 278.485 281.666C278.798 281.615 279.053 281.553 279.25 281.48V282.891C279.039 282.986 278.743 283.066 278.364 283.131C277.993 283.197 277.628 283.23 277.271 283.23C276.637 283.23 276.061 283.12 275.544 282.902C275.026 282.676 274.611 282.297 274.297 281.765C273.991 281.233 273.838 280.497 273.838 279.556V272.45H272.133V271.565L273.849 270.854L274.571 268.252H275.664V271.029H279.173V272.45H275.664V279.502C275.664 280.252 275.835 280.814 276.178 281.185C276.528 281.557 276.99 281.743 277.566 281.743Z" fill="#112D51"/>
<path d="M292.107 270.81C293.127 270.81 294.002 271.036 294.73 271.488C295.459 271.94 296.017 272.574 296.403 273.39C296.789 274.199 296.982 275.147 296.982 276.233V277.359H288.707C288.728 278.766 289.078 279.837 289.756 280.573C290.434 281.309 291.389 281.677 292.62 281.677C293.378 281.677 294.049 281.608 294.632 281.47C295.215 281.331 295.82 281.127 296.447 280.857V282.453C295.842 282.723 295.241 282.92 294.643 283.044C294.053 283.168 293.353 283.23 292.544 283.23C291.392 283.23 290.387 282.996 289.526 282.53C288.674 282.056 288.01 281.364 287.537 280.453C287.063 279.542 286.826 278.427 286.826 277.107C286.826 275.817 287.041 274.702 287.471 273.762C287.908 272.815 288.521 272.086 289.308 271.576C290.102 271.065 291.035 270.81 292.107 270.81ZM292.085 272.297C291.115 272.297 290.343 272.614 289.767 273.248C289.191 273.882 288.849 274.768 288.739 275.905H295.08C295.073 275.191 294.96 274.564 294.741 274.024C294.53 273.478 294.206 273.055 293.768 272.756C293.331 272.45 292.77 272.297 292.085 272.297Z" fill="#112D51"/>
<path d="M304.548 270.832C305.976 270.832 307.037 271.153 307.729 271.794C308.422 272.436 308.768 273.46 308.768 274.866V283.011H307.445L307.095 281.24H307.008C306.672 281.677 306.323 282.045 305.958 282.344C305.594 282.636 305.171 282.858 304.69 283.011C304.216 283.157 303.633 283.23 302.941 283.23C302.212 283.23 301.563 283.102 300.995 282.847C300.434 282.592 299.989 282.206 299.661 281.688C299.34 281.171 299.18 280.515 299.18 279.72C299.18 278.525 299.654 277.607 300.601 276.965C301.549 276.324 302.992 275.974 304.93 275.916L306.997 275.828V275.096C306.997 274.061 306.774 273.336 306.33 272.92C305.885 272.505 305.258 272.297 304.449 272.297C303.823 272.297 303.225 272.388 302.656 272.57C302.088 272.753 301.549 272.968 301.038 273.215L300.481 271.838C301.02 271.561 301.64 271.324 302.339 271.127C303.039 270.931 303.775 270.832 304.548 270.832ZM306.975 277.107L305.149 277.184C303.655 277.242 302.602 277.486 301.99 277.916C301.377 278.346 301.071 278.955 301.071 279.742C301.071 280.427 301.279 280.934 301.694 281.262C302.11 281.59 302.66 281.754 303.345 281.754C304.409 281.754 305.28 281.459 305.958 280.868C306.636 280.278 306.975 279.392 306.975 278.212V277.107Z" fill="#112D51"/>
<path d="M320.258 279.731C320.258 280.497 320.065 281.142 319.678 281.666C319.299 282.184 318.753 282.574 318.039 282.836C317.332 283.098 316.486 283.23 315.502 283.23C314.664 283.23 313.939 283.164 313.327 283.033C312.714 282.902 312.179 282.716 311.72 282.475V280.803C312.208 281.043 312.791 281.262 313.469 281.459C314.147 281.655 314.839 281.754 315.546 281.754C316.581 281.754 317.332 281.586 317.798 281.251C318.264 280.916 318.498 280.46 318.498 279.884C318.498 279.556 318.403 279.268 318.213 279.021C318.031 278.766 317.721 278.521 317.284 278.288C316.847 278.048 316.242 277.785 315.469 277.501C314.704 277.209 314.041 276.922 313.48 276.637C312.926 276.346 312.496 275.992 312.19 275.577C311.891 275.161 311.741 274.622 311.741 273.959C311.741 272.946 312.15 272.17 312.966 271.63C313.789 271.084 314.868 270.81 316.202 270.81C316.923 270.81 317.598 270.883 318.224 271.029C318.858 271.167 319.449 271.357 319.995 271.597L319.383 273.051C318.888 272.84 318.359 272.662 317.798 272.516C317.237 272.37 316.665 272.297 316.082 272.297C315.243 272.297 314.598 272.436 314.147 272.713C313.702 272.99 313.48 273.369 313.48 273.85C313.48 274.221 313.582 274.527 313.786 274.768C313.997 275.008 314.332 275.234 314.792 275.446C315.251 275.657 315.856 275.905 316.606 276.189C317.357 276.466 318.006 276.754 318.552 277.053C319.099 277.344 319.518 277.701 319.81 278.124C320.108 278.54 320.258 279.075 320.258 279.731Z" fill="#112D51"/>
<path d="M324.992 271.029V283.011H323.177V271.029H324.992ZM324.106 266.547C324.405 266.547 324.66 266.645 324.871 266.842C325.09 267.031 325.199 267.33 325.199 267.738C325.199 268.139 325.09 268.438 324.871 268.635C324.66 268.832 324.405 268.93 324.106 268.93C323.793 268.93 323.53 268.832 323.319 268.635C323.115 268.438 323.013 268.139 323.013 267.738C323.013 267.33 323.115 267.031 323.319 266.842C323.53 266.645 323.793 266.547 324.106 266.547Z" fill="#112D51"/>
<path d="M333.453 270.81C334.474 270.81 335.348 271.036 336.077 271.488C336.806 271.94 337.364 272.574 337.75 273.39C338.136 274.199 338.329 275.147 338.329 276.233V277.359H330.053C330.075 278.766 330.425 279.837 331.103 280.573C331.781 281.309 332.736 281.677 333.967 281.677C334.725 281.677 335.396 281.608 335.979 281.47C336.562 281.331 337.167 281.127 337.794 280.857V282.453C337.189 282.723 336.587 282.92 335.99 283.044C335.399 283.168 334.7 283.23 333.891 283.23C332.739 283.23 331.733 282.996 330.873 282.53C330.021 282.056 329.357 281.364 328.884 280.453C328.41 279.542 328.173 278.427 328.173 277.107C328.173 275.817 328.388 274.702 328.818 273.762C329.255 272.815 329.868 272.086 330.655 271.576C331.449 271.065 332.382 270.81 333.453 270.81ZM333.432 272.297C332.462 272.297 331.69 272.614 331.114 273.248C330.538 273.882 330.196 274.768 330.086 275.905H336.427C336.42 275.191 336.307 274.564 336.088 274.024C335.877 273.478 335.552 273.055 335.115 272.756C334.678 272.45 334.117 272.297 333.432 272.297Z" fill="#112D51"/>
<path d="M346.857 270.81C347.097 270.81 347.349 270.825 347.611 270.854C347.873 270.876 348.107 270.909 348.311 270.952L348.081 272.636C347.884 272.585 347.666 272.545 347.425 272.516C347.185 272.487 346.959 272.472 346.747 272.472C346.266 272.472 345.811 272.57 345.381 272.767C344.958 272.957 344.586 273.234 344.266 273.598C343.945 273.955 343.694 274.389 343.511 274.899C343.329 275.402 343.238 275.963 343.238 276.583V283.011H341.412V271.029H342.921L343.118 273.237H343.194C343.442 272.793 343.741 272.388 344.091 272.024C344.441 271.652 344.845 271.357 345.304 271.138C345.771 270.92 346.288 270.81 346.857 270.81Z" fill="#112D51"/>
<path fill-rule="evenodd" clip-rule="evenodd" d="M192.964 49.6025L177.064 0L161.164 49.6025H192.964ZM202.79 80.2586L244.417 49.6025H192.964L198.253 66.1046L202.79 80.2586ZM208.864 99.2051H177.064L155.206 83.1079L151.337 80.2586L135.437 129.861L177.064 99.2051L218.69 129.861L208.864 99.2051Z" fill="#112D51"/>
<path fill-rule="evenodd" clip-rule="evenodd" d="M132.118 66.1046L109.71 49.6025H161.164H192.964L198.253 66.1046H132.118ZM155.206 83.1079L177.064 99.2051H208.864L203.704 83.1079H155.206Z" fill="#B9383A"/>
<path d="M202.79 80.2586L198.253 66.1046H132.118L151.337 80.2586L155.206 83.1079H203.704L202.79 80.2586Z" fill="white"/>
<path d="M16.7318 230.383H29.7236V248.617C27.8371 249.275 25.8933 249.772 23.892 250.11C21.8908 250.447 19.6435 250.615 17.1501 250.615C13.4429 250.615 10.318 249.857 7.77537 248.339C5.23279 246.822 3.29715 244.647 1.96845 241.814C0.656149 238.982 0 235.576 0 231.597C0 227.769 0.729966 224.431 2.1899 221.582C3.64983 218.732 5.77412 216.523 8.56275 214.955C11.3514 213.387 14.7142 212.603 18.651 212.603C20.6195 212.603 22.5059 212.797 24.3103 213.185C26.1312 213.573 27.8043 214.112 29.3299 214.804L27.5091 219.179C26.2296 218.589 24.8107 218.091 23.2523 217.687C21.7103 217.265 20.111 217.055 18.4542 217.055C15.6984 217.055 13.328 217.653 11.3432 218.85C9.37474 220.047 7.85739 221.733 6.79115 223.908C5.74131 226.083 5.21639 228.663 5.21639 231.647C5.21639 234.564 5.65929 237.11 6.54509 239.285C7.43089 241.46 8.81701 243.155 10.7034 244.369C12.5899 245.583 15.0176 246.19 17.9867 246.19C19.4794 246.19 20.7507 246.105 21.8006 245.937C22.8668 245.768 23.8428 245.566 24.7286 245.33V234.91H16.7318V230.383Z" fill="#112D51"/>
<path d="M69.9537 231.571C69.9537 234.421 69.6011 237.017 68.8957 239.361C68.1903 241.688 67.1405 243.694 65.7462 245.38C64.3683 247.049 62.6377 248.339 60.5544 249.25C58.4875 250.16 56.068 250.615 53.2957 250.615C50.4743 250.615 48.0137 250.16 45.9141 249.25C43.8308 248.339 42.1002 247.041 40.7223 245.355C39.3444 243.669 38.3109 241.654 37.622 239.31C36.9494 236.967 36.6131 234.37 36.6131 231.521C36.6131 227.727 37.2201 224.406 38.434 221.556C39.6478 218.707 41.4933 216.498 43.9702 214.93C46.4636 213.345 49.5967 212.553 53.3696 212.553C57.0112 212.553 60.0623 213.337 62.5228 214.905C64.9834 216.473 66.837 218.682 68.0837 221.531C69.3304 224.364 69.9537 227.71 69.9537 231.571ZM41.9033 231.571C41.9033 234.573 42.3052 237.169 43.109 239.361C43.9292 241.536 45.1759 243.222 46.8491 244.419C48.5387 245.599 50.6875 246.19 53.2957 246.19C55.9367 246.19 58.0938 245.599 59.767 244.419C61.4402 243.222 62.6705 241.536 63.4579 239.361C64.2452 237.169 64.6389 234.573 64.6389 231.571C64.6389 227.019 63.7367 223.462 61.9323 220.899C60.1279 218.319 57.2736 217.029 53.3696 217.029C50.745 217.029 48.5879 217.619 46.8983 218.8C45.2087 219.963 43.9538 221.632 43.1336 223.807C42.3134 225.965 41.9033 228.553 41.9033 231.571Z" fill="#112D51"/>
<path d="M103.713 213.134L90.9669 250.11H85.7259L72.9802 213.134H78.1966L86.1934 236.908C86.4887 237.734 86.7676 238.611 87.03 239.538C87.2925 240.449 87.5385 241.359 87.7682 242.269C87.9978 243.18 88.1865 244.015 88.3341 244.773C88.4818 244.015 88.6622 243.18 88.8754 242.269C89.1051 241.359 89.3594 240.44 89.6382 239.513C89.9171 238.569 90.1959 237.675 90.4748 236.832L98.447 213.134H103.713Z" fill="#112D51"/>
<path d="M128.761 250.11H108.56V213.134H128.761V217.586H113.604V228.587H127.851V232.988H113.604V245.633H128.761V250.11Z" fill="#112D51"/>
<path d="M146.526 213.134C149.561 213.134 152.063 213.522 154.031 214.298C156.016 215.057 157.492 216.22 158.46 217.788C159.428 219.339 159.912 221.312 159.912 223.706C159.912 225.594 159.576 227.188 158.903 228.486C158.23 229.784 157.345 230.846 156.246 231.673C155.163 232.499 153.998 233.148 152.752 233.62L162.815 250.11H157.033L148.273 234.986H141.654V250.11H136.61V213.134H146.526ZM146.207 217.535H141.654V230.661H146.551C149.389 230.661 151.464 230.096 152.776 228.966C154.088 227.82 154.745 226.134 154.745 223.908C154.745 221.598 154.047 219.963 152.653 219.002C151.259 218.024 149.11 217.535 146.207 217.535Z" fill="#112D51"/>
<path d="M197.337 250.11H191.284L172.658 219.811H172.461C172.51 220.722 172.567 221.725 172.633 222.821C172.699 223.9 172.748 225.038 172.781 226.235C172.83 227.415 172.863 228.612 172.879 229.826V250.11H168.253V213.134H174.257L192.81 243.281H192.982C192.949 242.539 192.908 241.62 192.859 240.524C192.81 239.428 192.76 238.274 192.711 237.06C192.678 235.829 192.662 234.665 192.662 233.569V213.134H197.337V250.11Z" fill="#112D51"/>
<path d="M222.656 250.11L211.436 218.319H211.239C211.288 219.01 211.338 219.904 211.387 221C211.452 222.079 211.502 223.259 211.534 224.541C211.584 225.805 211.608 227.053 211.608 228.284V250.11H206.982V213.134H214.241L224.895 243.256H225.067L235.992 213.134H243.202V250.11H238.33V227.98C238.33 226.867 238.346 225.712 238.379 224.515C238.412 223.301 238.453 222.155 238.502 221.076C238.568 219.98 238.625 219.078 238.674 218.37H238.453L226.962 250.11H222.656Z" fill="#112D51"/>
<path d="M273.048 250.11H252.847V213.134H273.048V217.586H257.891V228.587H272.138V232.988H257.891V245.633H273.048V250.11Z" fill="#112D51"/>
<path d="M309.981 250.11H303.928L285.302 219.811H285.105C285.154 220.722 285.212 221.725 285.277 222.821C285.343 223.9 285.392 225.038 285.425 226.235C285.474 227.415 285.507 228.612 285.523 229.826V250.11H280.898V213.134H286.901L305.454 243.281H305.626C305.593 242.539 305.552 241.62 305.503 240.524C305.454 239.428 305.405 238.274 305.356 237.06C305.323 235.829 305.306 234.665 305.306 233.569V213.134H309.981V250.11Z" fill="#112D51"/>
<path d="M331.388 250.11H326.32V217.611H315.395V213.134H342.289V217.611H331.388V250.11Z" fill="#112D51"/>
<path d="M52.8987 154.344C51.0506 154.344 49.3906 154.681 47.9187 155.357C46.4631 156.015 45.2283 156.986 44.2143 158.269C43.2003 159.535 42.4234 161.063 41.8837 162.853C41.344 164.642 41.0741 166.66 41.0741 168.905C41.0741 171.894 41.4994 174.477 42.3498 176.655C43.2166 178.833 44.5168 180.512 46.2505 181.694C47.9841 182.876 50.1675 183.467 52.8006 183.467C54.3707 183.467 55.8671 183.323 57.29 183.036C58.7293 182.733 60.1603 182.344 61.5832 181.872V186.329C60.2094 186.869 58.7865 187.266 57.3146 187.519C55.859 187.789 54.1499 187.924 52.1873 187.924C48.5238 187.924 45.4736 187.139 43.0367 185.569C40.6162 183.999 38.809 181.796 37.6151 178.959C36.4212 176.106 35.8242 172.746 35.8242 168.88C35.8242 166.077 36.2004 163.52 36.9527 161.207C37.705 158.877 38.809 156.868 40.2646 155.179C41.7202 153.474 43.5028 152.166 45.6126 151.254C47.7388 150.326 50.1838 149.861 52.9478 149.861C54.7468 149.861 56.4968 150.064 58.1977 150.469C59.915 150.857 61.4932 151.406 62.9325 152.115L61.068 156.446C59.8741 155.889 58.5902 155.399 57.2164 154.977C55.859 154.555 54.4197 154.344 52.8987 154.344Z" fill="#2CA8FF"/>
<path d="M91.7089 187.418L87.7347 176.401H73.6776L69.7525 187.418H64.5271L78.2161 150.241H83.3679L96.9834 187.418H91.7089ZM86.3363 171.894L82.5583 160.979C82.4439 160.607 82.264 160.05 82.0186 159.307C81.7897 158.565 81.5525 157.796 81.3072 157.003C81.0782 156.209 80.8901 155.551 80.7429 155.028C80.5794 155.72 80.3913 156.454 80.1787 157.231C79.9661 157.99 79.7535 158.708 79.5409 159.383C79.3446 160.042 79.1811 160.574 79.0502 160.979L75.2232 171.894H86.3363Z" fill="#2CA8FF"/>
<path d="M111.752 150.393C114.777 150.393 117.272 150.781 119.234 151.558C121.213 152.318 122.685 153.483 123.65 155.053C124.615 156.606 125.097 158.581 125.097 160.979C125.097 162.87 124.762 164.465 124.092 165.765C123.421 167.065 122.538 168.129 121.442 168.956C120.363 169.783 119.201 170.433 117.959 170.906L127.992 187.418H122.227L113.494 172.274H106.894V187.418H101.865V150.393H111.752ZM111.433 154.8H106.894V167.943H111.776C114.606 167.943 116.675 167.377 117.983 166.246C119.291 165.098 119.946 163.41 119.946 161.181C119.946 158.868 119.251 157.231 117.86 156.268C116.47 155.289 114.328 154.8 111.433 154.8Z" fill="#2CA8FF"/>
<path d="M153.555 187.418H133.414V150.393H153.555V154.85H138.443V165.866H152.647V170.273H138.443V182.935H153.555V187.418Z" fill="#2CA8FF"/>
<path d="M181.522 187.418H161.381V150.393H181.522V154.85H166.41V165.866H180.614V170.273H166.41V182.935H181.522V187.418Z" fill="#2CA8FF"/>
<path d="M199.234 150.393C202.26 150.393 204.754 150.781 206.717 151.558C208.696 152.318 210.167 153.483 211.132 155.053C212.097 156.606 212.58 158.581 212.58 160.979C212.58 162.87 212.245 164.465 211.574 165.765C210.903 167.065 210.02 168.129 208.924 168.956C207.845 169.783 206.684 170.433 205.441 170.906L215.475 187.418H209.71L200.976 172.274H194.377V187.418H189.348V150.393H199.234ZM198.915 154.8H194.377V167.943H199.259C202.088 167.943 204.157 167.377 205.465 166.246C206.774 165.098 207.428 163.41 207.428 161.181C207.428 158.868 206.733 157.231 205.343 156.268C203.953 155.289 201.81 154.8 198.915 154.8Z" fill="#2CA8FF"/>
<path d="M241.381 177.465C241.381 179.66 240.849 181.542 239.786 183.112C238.739 184.666 237.259 185.856 235.346 186.683C233.432 187.51 231.159 187.924 228.526 187.924C227.201 187.924 225.934 187.848 224.723 187.696C223.529 187.561 222.417 187.358 221.387 187.088C220.357 186.818 219.424 186.481 218.59 186.075V181.162C219.948 181.736 221.518 182.277 223.3 182.783C225.083 183.273 226.923 183.518 228.82 183.518C230.472 183.518 231.854 183.29 232.966 182.834C234.095 182.361 234.945 181.703 235.518 180.859C236.09 180.014 236.376 179.001 236.376 177.82C236.376 176.638 236.098 175.65 235.542 174.857C234.986 174.046 234.103 173.303 232.893 172.628C231.699 171.953 230.129 171.235 228.182 170.475C226.825 169.969 225.59 169.395 224.478 168.753C223.366 168.095 222.401 167.344 221.583 166.5C220.782 165.655 220.16 164.668 219.719 163.537C219.277 162.389 219.056 161.072 219.056 159.586C219.056 157.543 219.539 155.796 220.504 154.344C221.485 152.892 222.851 151.786 224.601 151.026C226.351 150.25 228.379 149.861 230.685 149.861C232.582 149.861 234.348 150.055 235.984 150.444C237.635 150.832 239.206 151.364 240.694 152.039L239.099 156.344C237.709 155.753 236.311 155.272 234.904 154.901C233.498 154.529 232.042 154.344 230.537 154.344C229.147 154.344 227.97 154.555 227.005 154.977C226.056 155.399 225.328 155.998 224.821 156.775C224.331 157.552 224.085 158.472 224.085 159.535C224.085 160.734 224.347 161.73 224.87 162.524C225.394 163.317 226.22 164.035 227.348 164.676C228.477 165.318 229.949 166.001 231.764 166.727C233.808 167.538 235.542 168.399 236.965 169.311C238.404 170.222 239.5 171.32 240.252 172.603C241.005 173.886 241.381 175.507 241.381 177.465Z" fill="#2CA8FF"/>
<path d="M261.522 187.418V150.393H266.551V187.418H261.522Z" fill="#2CA8FF"/>
<path d="M305.238 187.418H299.204L280.633 157.079H280.436C280.485 157.99 280.543 158.995 280.608 160.092C280.673 161.173 280.722 162.313 280.755 163.511C280.804 164.693 280.837 165.892 280.853 167.107V187.418H276.241V150.393H282.227L300.725 180.58H300.896C300.864 179.837 300.823 178.917 300.774 177.82C300.725 176.722 300.675 175.566 300.626 174.35C300.594 173.118 300.577 171.953 300.577 170.855V150.393H305.238V187.418Z" fill="#2CA8FF"/>
</svg>
