<svg width="29" height="29" viewBox="0 0 29 29" fill="none" xmlns="http://www.w3.org/2000/svg">
<mask id="mask0_2219_7069" style="mask-type:alpha" maskUnits="userSpaceOnUse" x="0" y="0" width="29" height="29">
<rect width="29" height="29" rx="3" fill="#D9D9D9"/>
</mask>
<g mask="url(#mask0_2219_7069)">
<path fill-rule="evenodd" clip-rule="evenodd" d="M2.11719 0C1.01262 0 0.117188 0.89543 0.117188 2V27C0.117188 28.1046 1.01262 29 2.11719 29H27.1172C28.2218 29 29.1172 28.1046 29.1172 27V2C29.1172 0.895431 28.2218 0 27.1172 0H2.11719ZM26.1711 11.619C26.1711 11.4117 25.9155 11.289 25.7437 11.4201C24.7569 12.1564 23.4529 13.0958 18.9594 16.2312C18.8231 16.3267 18.6704 16.4402 18.5039 16.5639C17.5782 17.2516 16.2263 18.2562 14.8933 18.2454C13.5665 18.2526 12.2365 17.2669 11.2961 16.5699C11.128 16.4454 10.9724 16.33 10.8315 16.2312C6.33803 13.0958 5.02963 12.1606 4.04282 11.4244C3.86661 11.2932 3.6155 11.4117 3.6155 11.6232V20.2723C3.6155 21.3936 4.56266 22.3033 5.73008 22.3033H24.0565C25.2239 22.3033 26.1711 21.3936 26.1711 20.2723V11.619ZM17.6881 15.4553C16.8958 16.0434 15.7403 16.9011 14.8933 16.8871C14.0463 16.9011 12.8907 16.0434 12.0985 15.4553C11.9347 15.3338 11.7865 15.2237 11.6597 15.1353C6.24151 11.3586 5.46286 10.7733 4.30465 9.9027C4.21322 9.83397 4.11943 9.76347 4.0208 9.68948C3.76528 9.49483 3.6155 9.20286 3.6155 8.88974V8.08577C3.6155 6.96444 4.56266 6.05469 5.73008 6.05469H24.0565C25.2239 6.05469 26.1711 6.96444 26.1711 8.08577V8.88974C26.1711 9.20286 26.0213 9.49906 25.7658 9.68948C25.6902 9.74642 25.6174 9.80129 25.5464 9.85486C24.3508 10.7566 23.645 11.2889 18.1268 15.1353C18.0001 15.2237 17.8518 15.3338 17.6881 15.4553Z" fill="#112D51"/>
</g>
</svg>
