<svg width="423" height="272" viewBox="0 0 423 272" fill="none" xmlns="http://www.w3.org/2000/svg">
<path fill-rule="evenodd" clip-rule="evenodd" d="M154.12 10.9521V1.79111C154.12 0.802417 155.376 0 156.918 0C158.465 0 159.716 0.802417 159.716 1.79111V10.9521H180.869V1.79111C180.869 0.802417 182.12 0 183.667 0C185.214 0 186.465 0.802417 186.465 1.79111V10.9521H207.617V1.79111C207.617 0.802417 208.868 0 210.415 0C211.962 0 213.213 0.802417 213.213 1.79111V10.9521H234.366V1.79111C234.366 0.802417 235.617 0 237.164 0C238.707 0 239.962 0.802417 239.962 1.79111V10.9521H261.109V1.79111C261.109 0.802417 262.365 0 263.912 0C265.454 0 266.71 0.802417 266.71 1.79111V10.9521H287.858V1.79111C287.858 0.802417 289.114 0 290.656 0C292.203 0 293.459 0.802417 293.459 1.79111V10.9521H314.034V1.79111C314.034 0.802417 315.29 0 316.832 0C318.379 0 319.63 0.802417 319.63 1.79111V10.9521H334.542V237.525H138.97V10.9521H154.12Z" fill="#2867C6"/>
<path d="M338.839 36.9922H143.268V263.565H338.839V36.9922Z" fill="#68E1FD"/>
<path d="M334.542 37.0303H138.97V263.603H334.542V37.0303Z" fill="#EFF5F9"/>
<path d="M183.667 79.377H149.885V113.169H183.667V79.377Z" fill="white"/>
<path d="M219.326 79.377H185.544V113.169H219.326V79.377Z" fill="white"/>
<path d="M254.989 79.377H221.207V113.169H254.989V79.377Z" fill="white"/>
<path d="M290.647 79.377H256.865V113.169H290.647V79.377Z" fill="white"/>
<path d="M183.667 114.655H149.885V148.448H183.667V114.655Z" fill="white"/>
<path d="M219.326 114.655H185.544V148.448H219.326V114.655Z" fill="white"/>
<path d="M254.989 114.655H221.207V148.448H254.989V114.655Z" fill="white"/>
<path d="M290.647 114.655H256.865V148.448H290.647V114.655Z" fill="white"/>
<path d="M183.667 149.933H149.885V183.725H183.667V149.933Z" fill="white"/>
<path d="M219.326 149.933H185.544V183.725H219.326V149.933Z" fill="white"/>
<path d="M254.989 149.933H221.207V183.725H254.989V149.933Z" fill="white"/>
<path d="M290.647 149.933H256.865V183.725H290.647V149.933Z" fill="white"/>
<path d="M183.667 185.211H149.885V219.003H183.667V185.211Z" fill="white"/>
<path d="M219.326 185.211H185.544V219.003H219.326V185.211Z" fill="white"/>
<path d="M254.989 185.211H221.207V219.003H254.989V185.211Z" fill="white"/>
<path d="M290.647 185.211H256.865V219.003H290.647V185.211Z" fill="white"/>
<path d="M183.667 220.487H149.885V254.28H183.667V220.487Z" fill="white"/>
<path d="M219.326 220.487H185.544V254.28H219.326V220.487Z" fill="white"/>
<path d="M254.989 220.487H221.207V254.28H254.989V220.487Z" fill="white"/>
<path d="M325.709 79.377H291.927V113.169H325.709V79.377Z" fill="white"/>
<path d="M325.709 44.0986H291.927V77.8909H325.709V44.0986Z" fill="white"/>
<path d="M290.647 44.0986H256.865V77.8909H290.647V44.0986Z" fill="white"/>
<path d="M254.646 44.0986H220.864V77.8909H254.646V44.0986Z" fill="white"/>
<path d="M325.709 114.655H291.927V148.448H325.709V114.655Z" fill="white"/>
<path d="M325.709 149.933H291.927V183.725H325.709V149.933Z" fill="white"/>
<path d="M325.709 185.211H291.927V219.003H325.709V185.211Z" fill="white"/>
<path d="M338.997 10.9512H334.547V263.603H338.997V10.9512Z" fill="#68E1FD"/>
<path d="M334.547 263.603H338.997V10.9508H334.547V263.603Z" fill="url(#paint0_linear_167_4132)"/>
<path d="M119.432 215.721L119.317 215.802V215.325L119.432 215.721Z" fill="#68E1FD"/>
<path d="M119.432 215.721L119.317 215.802V215.325L119.432 215.721Z" fill="#68E1FD"/>
<path opacity="0.18" d="M39.2519 263.421L2.25017 268.652C1.93846 268.654 1.63067 268.703 1.34597 268.797C1.06126 268.891 0.805747 269.026 0.595334 269.196C0.384921 269.366 0.224119 269.565 0.12294 269.783C0.021761 270 -0.0176268 270.23 0.0072316 270.46C0.03209 270.689 0.12066 270.911 0.267427 271.114C0.414195 271.317 0.616017 271.495 0.860319 271.638C1.10462 271.781 1.38617 271.885 1.68743 271.944C1.9887 272.003 2.30322 272.016 2.61141 271.981H2.72108H420.642C421.231 271.999 421.806 271.847 422.245 271.557C422.685 271.268 422.953 270.863 422.994 270.43C423.036 269.996 422.846 269.568 422.466 269.236C422.086 268.904 421.545 268.695 420.958 268.652L367.023 263.649H366.714L39.7228 263.411C39.5658 263.402 39.4081 263.406 39.2519 263.421Z" fill="#1D2741"/>
<path d="M49.542 263.316V130.863H110.871L124.766 143.258H215.997V263.316H49.542Z" fill="#EFF5F9"/>
<path d="M215.997 264.391H49.5417C49.2571 264.391 48.9842 264.278 48.783 264.076C48.5818 263.875 48.4688 263.602 48.4688 263.317V130.864C48.4688 130.579 48.5818 130.306 48.783 130.105C48.9842 129.903 49.2571 129.79 49.5417 129.79H110.871C111.132 129.79 111.383 129.886 111.579 130.059L125.173 142.185H215.997C216.282 142.185 216.555 142.298 216.756 142.499C216.957 142.701 217.07 142.974 217.07 143.259V263.317C217.07 263.602 216.957 263.875 216.756 264.076C216.555 264.278 216.282 264.391 215.997 264.391ZM50.6146 262.243H214.924V144.333H124.798C124.533 144.335 124.277 144.239 124.079 144.064L110.495 131.938H50.6146V262.243Z" fill="url(#paint1_linear_167_4132)"/>
<path d="M197.27 105.302L56.6641 118.582L69.998 260.052L210.604 246.771L197.27 105.302Z" fill="white"/>
<path d="M69.9925 261.126C69.7256 261.127 69.4678 261.029 69.2694 260.85C69.071 260.671 68.9463 260.425 68.9196 260.159L55.5937 118.684C55.5668 118.401 55.6534 118.118 55.8345 117.899C56.0155 117.679 56.2762 117.541 56.5593 117.514L197.168 104.238C197.451 104.211 197.733 104.298 197.952 104.479C198.172 104.661 198.31 104.921 198.337 105.205L211.663 246.68C211.691 246.962 211.606 247.244 211.427 247.464C211.337 247.573 211.226 247.664 211.101 247.73C210.976 247.797 210.839 247.838 210.697 247.851L70.1427 261.126H69.9925ZM57.8254 119.554L70.926 258.881L209.399 245.81L196.299 106.472L57.8254 119.554Z" fill="url(#paint2_linear_167_4132)"/>
<path d="M211.619 122.724H70.3887V250.59H211.619V122.724Z" fill="white"/>
<path d="M211.619 251.674H70.3884C70.1038 251.674 69.8309 251.561 69.6297 251.359C69.4285 251.158 69.3154 250.885 69.3154 250.6V122.722C69.3154 122.438 69.4285 122.164 69.6297 121.963C69.8309 121.762 70.1038 121.648 70.3884 121.648H211.619C211.904 121.648 212.177 121.762 212.378 121.963C212.579 122.164 212.692 122.438 212.692 122.722V250.6C212.692 250.885 212.579 251.158 212.378 251.359C212.177 251.561 211.904 251.674 211.619 251.674ZM71.4613 249.526H210.546V123.797H71.4613V249.526Z" fill="url(#paint3_linear_167_4132)"/>
<path d="M194.314 140.95H166.052C165.768 140.95 165.495 140.837 165.294 140.635C165.093 140.434 164.979 140.161 164.979 139.876C164.979 139.591 165.093 139.318 165.294 139.116C165.495 138.915 165.768 138.802 166.052 138.802H194.314C194.598 138.802 194.871 138.915 195.072 139.116C195.273 139.318 195.387 139.591 195.387 139.876C195.387 140.161 195.273 140.434 195.072 140.635C194.871 140.837 194.598 140.95 194.314 140.95Z" fill="#2867C6"/>
<path d="M194.313 154.504H89.2614C88.9769 154.504 88.7039 154.39 88.5027 154.189C88.3015 153.988 88.1885 153.714 88.1885 153.43C88.1885 153.145 88.3015 152.871 88.5027 152.67C88.7039 152.469 88.9769 152.355 89.2614 152.355H194.313C194.597 152.355 194.87 152.469 195.071 152.67C195.273 152.871 195.386 153.145 195.386 153.43C195.386 153.714 195.273 153.988 195.071 154.189C194.87 154.39 194.597 154.504 194.313 154.504Z" fill="#2867C6"/>
<path d="M194.313 168.059H89.2614C88.9769 168.059 88.7039 167.946 88.5027 167.745C88.3015 167.543 88.1885 167.27 88.1885 166.985C88.1885 166.7 88.3015 166.427 88.5027 166.226C88.7039 166.024 88.9769 165.911 89.2614 165.911H194.313C194.597 165.911 194.87 166.024 195.071 166.226C195.273 166.427 195.386 166.7 195.386 166.985C195.386 167.27 195.273 167.543 195.071 167.745C194.87 167.946 194.597 168.059 194.313 168.059Z" fill="#2867C6"/>
<path d="M194.313 181.624H89.2614C88.9769 181.624 88.7039 181.511 88.5027 181.309C88.3015 181.108 88.1885 180.835 88.1885 180.55C88.1885 180.265 88.3015 179.992 88.5027 179.79C88.7039 179.589 88.9769 179.476 89.2614 179.476H194.313C194.597 179.476 194.87 179.589 195.071 179.79C195.273 179.992 195.386 180.265 195.386 180.55C195.386 180.835 195.273 181.108 195.071 181.309C194.87 181.511 194.597 181.624 194.313 181.624Z" fill="#2867C6"/>
<path d="M49.542 263.317L74.917 176.823H152.855L164.336 166.243H246.812L217.21 263.317H49.542Z" fill="#EFF5F9"/>
<path d="M217.21 264.39H49.5417C49.3751 264.39 49.2108 264.352 49.0619 264.277C48.9129 264.203 48.7833 264.094 48.6833 263.961C48.5834 263.827 48.5159 263.673 48.4861 263.509C48.4563 263.345 48.465 263.176 48.5117 263.016L73.8866 176.522C73.9535 176.291 74.0955 176.09 74.29 175.95C74.4844 175.81 74.7201 175.739 74.9596 175.748H152.469L163.649 165.448C163.845 165.269 164.102 165.17 164.367 165.169H246.844C247.011 165.169 247.175 165.208 247.324 165.282C247.473 165.357 247.603 165.465 247.703 165.599C247.804 165.733 247.873 165.89 247.902 166.056C247.932 166.222 247.923 166.393 247.874 166.554L218.261 263.628C218.193 263.853 218.054 264.049 217.864 264.186C217.674 264.324 217.444 264.396 217.21 264.39ZM50.9794 262.242H216.416L245.385 167.317H164.754L153.542 177.617C153.342 177.799 153.082 177.899 152.812 177.897H75.7214L50.9794 262.242Z" fill="url(#paint4_linear_167_4132)"/>
<path d="M209.947 251.266H175.506C175.221 251.266 174.948 251.153 174.747 250.952C174.546 250.75 174.433 250.477 174.433 250.192C174.433 249.907 174.546 249.634 174.747 249.433C174.948 249.231 175.221 249.118 175.506 249.118H209.947C210.231 249.118 210.504 249.231 210.706 249.433C210.907 249.634 211.02 249.907 211.02 250.192C211.02 250.477 210.907 250.75 210.706 250.952C210.504 251.153 210.231 251.266 209.947 251.266Z" fill="#2867C6"/>
<path d="M101.707 140.95H89.2614C88.9769 140.95 88.7039 140.837 88.5027 140.635C88.3015 140.434 88.1885 140.161 88.1885 139.876C88.1885 139.591 88.3015 139.318 88.5027 139.116C88.7039 138.915 88.9769 138.802 89.2614 138.802H101.707C101.992 138.802 102.265 138.915 102.466 139.116C102.667 139.318 102.78 139.591 102.78 139.876C102.78 140.161 102.667 140.434 102.466 140.635C102.265 140.837 101.992 140.95 101.707 140.95Z" fill="#2867C6"/>
<path d="M349.735 213.048C348.922 214.63 348.634 216.429 348.914 218.186C349.193 219.942 350.024 221.564 351.287 222.815L385.722 257.426C388.948 260.66 394.229 260.66 397.46 257.426L401.42 253.462C402.97 251.901 403.84 249.789 403.84 247.587C403.84 245.385 402.97 243.273 401.42 241.712L366.845 207.241C365.587 205.985 363.957 205.169 362.199 204.914C360.44 204.66 358.646 204.98 357.084 205.827L349.735 213.048Z" fill="#112D51"/>
<path fill-rule="evenodd" clip-rule="evenodd" d="M318.34 129.811C312.509 129.81 306.734 130.959 301.347 133.193C295.96 135.426 291.064 138.7 286.941 142.827C282.817 146.955 279.546 151.855 277.315 157.248C275.083 162.641 273.935 168.421 273.935 174.258C273.934 180.096 275.082 185.877 277.314 191.27C279.545 196.664 282.816 201.564 286.939 205.692C291.063 209.82 295.958 213.094 301.346 215.328C306.734 217.562 312.508 218.711 318.34 218.711C328.702 218.711 338.219 215.037 345.776 209.084L353.125 201.864C358.308 195.317 361.542 187.44 362.458 179.136C363.374 170.833 361.934 162.439 358.303 154.918C354.672 147.396 348.996 141.052 341.928 136.611C334.86 132.17 326.685 129.813 318.34 129.811ZM318.34 138.019C327.941 138.019 337.149 141.837 343.938 148.633C350.727 155.429 354.541 164.647 354.541 174.258C354.541 183.87 350.727 193.087 343.938 199.884C337.149 206.68 327.941 210.498 318.34 210.498C308.739 210.498 299.531 206.68 292.742 199.884C285.953 193.087 282.139 183.87 282.139 174.258C282.139 164.647 285.953 155.429 292.742 148.633C299.531 141.837 308.739 138.019 318.34 138.019Z" fill="#CBD1D3"/>
<path d="M345.776 209.084L349.735 213.048L357.084 205.827L353.125 201.864L345.776 209.084Z" fill="#886952"/>
<path d="M318.34 138.019C327.941 138.019 337.149 141.837 343.938 148.633C350.727 155.429 354.541 164.647 354.541 174.258C354.541 183.87 350.727 193.087 343.938 199.884C337.149 206.68 327.941 210.498 318.34 210.498C308.739 210.498 299.531 206.68 292.742 199.884C285.953 193.087 282.139 183.87 282.139 174.258C282.139 164.647 285.953 155.429 292.742 148.633C299.531 141.837 308.739 138.019 318.34 138.019Z" fill="white"/>
<path d="M306.712 159.513C306.305 159.119 305.76 158.901 305.194 158.906C304.629 158.911 304.087 159.138 303.687 159.539C303.287 159.94 303.06 160.481 303.055 161.048C303.05 161.614 303.268 162.16 303.661 162.567L316.123 175.044L303.659 187.52C303.453 187.719 303.288 187.958 303.175 188.221C303.062 188.485 303.003 188.768 303 189.055C302.998 189.342 303.052 189.626 303.161 189.892C303.269 190.157 303.429 190.399 303.632 190.602C303.835 190.804 304.076 190.965 304.341 191.073C304.606 191.182 304.89 191.237 305.177 191.234C305.463 191.232 305.746 191.172 306.01 191.059C306.273 190.946 306.511 190.781 306.71 190.575L319.175 178.099L331.637 190.575C332.044 190.968 332.589 191.186 333.155 191.181C333.721 191.176 334.262 190.949 334.662 190.548C335.062 190.148 335.289 189.606 335.294 189.04C335.299 188.473 335.082 187.927 334.689 187.52L322.226 175.044L334.689 162.567C335.082 162.16 335.299 161.614 335.294 161.048C335.289 160.481 335.062 159.94 334.662 159.539C334.262 159.138 333.721 158.911 333.155 158.906C332.589 158.901 332.044 159.119 331.637 159.513L319.175 171.989L306.712 159.513Z" fill="#112D51"/>
<defs>
<linearGradient id="paint0_linear_167_4132" x1="336.772" y1="263.603" x2="336.772" y2="10.9508" gradientUnits="userSpaceOnUse">
<stop stop-color="#EAD6C6"/>
<stop offset="1" stop-color="#8A6B54"/>
</linearGradient>
<linearGradient id="paint1_linear_167_4132" x1="132.769" y1="129.79" x2="146.306" y2="262.783" gradientUnits="userSpaceOnUse">
<stop offset="0.124973" stop-color="#F3EAE3"/>
<stop offset="1" stop-color="#9A765D"/>
</linearGradient>
<linearGradient id="paint2_linear_167_4132" x1="133.629" y1="104.233" x2="133.629" y2="261.126" gradientUnits="userSpaceOnUse">
<stop stop-color="#886952"/>
<stop offset="0.657173" stop-color="#EAD6C6"/>
</linearGradient>
<linearGradient id="paint3_linear_167_4132" x1="68.9528" y1="123.258" x2="233.524" y2="206.442" gradientUnits="userSpaceOnUse">
<stop offset="0.0872914" stop-color="#EAD6C6"/>
<stop offset="1" stop-color="#896A53"/>
</linearGradient>
<linearGradient id="paint4_linear_167_4132" x1="172.874" y1="165.658" x2="148.146" y2="264.379" gradientUnits="userSpaceOnUse">
<stop stop-color="#886952"/>
<stop offset="1" stop-color="#EAD6C6"/>
</linearGradient>
</defs>
</svg>
