<svg width="27" height="27" viewBox="0 0 27 27" fill="none" xmlns="http://www.w3.org/2000/svg">
<path fill-rule="evenodd" clip-rule="evenodd" d="M13.5 27C20.9558 27 27 20.9558 27 13.5C27 6.04416 20.9558 0 13.5 0C6.04416 0 0 6.04416 0 13.5C0 20.9558 6.04416 27 13.5 27ZM10.9829 13.5C10.9829 12.1114 12.111 10.9724 13.5104 10.9724C14.8989 10.9724 16.0379 12.1114 16.0379 13.5C16.0379 14.8886 14.8989 16.0276 13.5104 16.0276C12.1219 16.0276 10.9829 14.8886 10.9829 13.5ZM21.0496 10.3649C21.1038 11.4171 21.1038 12.4477 21.1038 13.5C21.1038 13.6317 21.104 13.7632 21.1042 13.8945C21.1053 14.8129 21.1065 15.724 21.0496 16.6351C20.9953 17.8501 20.7133 18.9241 19.8238 19.8137C18.9451 20.7032 17.8603 20.9853 16.6454 21.0395C15.5932 21.0938 14.5626 21.0938 13.5104 21.0938C12.4582 21.0938 11.4276 21.0938 10.3754 21.0395C9.16046 20.9853 8.08654 20.7032 7.19702 19.8137C6.30751 18.935 6.02547 17.8501 5.97123 16.6351C5.91699 15.5829 5.91699 14.5523 5.91699 13.5C5.91699 12.4477 5.91699 11.4171 5.97123 10.3649C6.02547 9.14987 6.30751 8.07589 7.19702 7.18634C8.07569 6.29679 9.16046 6.01473 10.3754 5.96049C11.4276 5.90625 12.4582 5.90625 13.5104 5.90625C14.5626 5.90625 15.5932 5.90625 16.6454 5.96049C17.8603 6.01473 18.9343 6.29679 19.8238 7.18634C20.7133 8.06504 20.9953 9.14987 21.0496 10.3649ZM9.61607 13.5C9.61607 15.6588 11.3517 17.3945 13.5104 17.3945C15.6691 17.3945 17.4047 15.6588 17.4047 13.5C17.4047 11.3412 15.6691 9.60549 13.5104 9.60549C11.3517 9.60549 9.61607 11.3412 9.61607 13.5ZM16.6562 9.44277C16.6562 9.95263 17.0685 10.354 17.5675 10.354L17.5783 10.3432C17.6971 10.3459 17.8152 10.3242 17.9253 10.2794C18.0354 10.2346 18.1352 10.1677 18.2183 10.0828C18.3032 9.99964 18.3701 9.89992 18.4149 9.78982C18.4597 9.67972 18.4814 9.5616 18.4787 9.44277C18.4787 8.9329 18.0773 8.53152 17.5675 8.53152C17.0576 8.53152 16.6562 8.9329 16.6562 9.44277Z" fill="white"/>
</svg>
