<svg width="20" height="20" viewBox="0 0 20 20" fill="none" xmlns="http://www.w3.org/2000/svg">
<path d="M2.3488 4.4585C2 4.85955 2 5.54845 2 6.92462V14.5203C2 15.4954 2 15.983 2.252 16.3501C2.5032 16.7172 2.9432 16.8716 3.8232 17.1796L4.8584 17.5427C5.4192 17.7392 5.8504 17.8904 6.2128 17.9874C6.4496 18.0513 6.6664 17.8637 6.6664 17.6163V5.36652C6.66363 5.26832 6.62877 5.17382 6.56727 5.09775C6.50576 5.02169 6.42106 4.96835 6.3264 4.94607C6.0152 4.86602 5.6408 4.73503 5.128 4.55553C3.8856 4.11971 3.264 3.90221 2.792 4.12295C2.6227 4.20229 2.47173 4.31659 2.3488 4.4585ZM10.496 3.11143L9.2672 3.97255C8.8232 4.28385 8.4968 4.51268 8.2192 4.6752C8.15379 4.71213 8.09912 4.76577 8.06065 4.83076C8.02218 4.89575 8.00127 4.9698 8 5.04552V17.212C8 17.5112 8.3072 17.6987 8.5568 17.537C8.8248 17.364 9.132 17.1489 9.504 16.8886L10.7328 16.0274C11.1768 15.7161 11.5032 15.4873 11.7808 15.3248C11.8462 15.2879 11.9009 15.2342 11.9394 15.1692C11.9778 15.1043 11.9987 15.0302 12 14.9545V2.7872C12 2.48722 11.6928 2.30044 11.4432 2.46135C11.1752 2.63519 10.868 2.85027 10.496 3.11143ZM16.176 2.81954L15.1416 2.4573C14.5808 2.26082 14.1496 2.10962 13.7872 2.01259C13.5504 1.94872 13.3336 2.1363 13.3336 2.38372V14.6335C13.3364 14.7317 13.3712 14.8262 13.4327 14.9022C13.4942 14.9783 13.5789 15.0316 13.6736 15.0539C13.9848 15.134 14.3592 15.2642 14.872 15.4445C16.1144 15.8803 16.736 16.0978 17.208 15.8771C17.3773 15.7977 17.5283 15.6834 17.6512 15.5415C18 15.1404 18 14.4516 18 13.0754V5.47972C18 4.50459 18 4.01622 17.748 3.64994C17.4968 3.28285 17.0568 3.12841 16.1768 2.82035L16.176 2.81954Z" fill="#5A607A"/>
</svg>
